<svg width="189" height="22" viewBox="0 0 189 22" fill="none" xmlns="http://www.w3.org/2000/svg">
<path d="M121.275 12.3857H128.31V14.0133H121.275V12.3857Z" fill="#939393"/>
<path d="M4.28176 2.51066L3.65206 18.851V19.1342C3.65206 20.5196 4.06149 20.803 6.26522 20.9604V21.7162C4.65959 21.5903 4.02988 21.5587 3.14829 21.5587C2.26695 21.5587 1.63724 21.5903 0 21.7162V20.9604C2.20398 20.803 2.51858 20.5512 2.58155 18.851L3.24287 3.39225V3.20358C3.24287 1.75476 2.80208 1.44016 0.629708 1.31421V0.527203C1.85751 0.621534 2.32967 0.653389 3.21126 0.653389C4.37634 0.653389 5.00605 0.621536 6.20225 0.495594L12.0585 16.4267L18.0089 0.495594C19.4259 0.621536 20.0869 0.653389 21.0315 0.653389C21.8185 0.653389 22.3223 0.621534 23.5185 0.527203V1.31421C21.3777 1.44016 20.9053 1.75476 20.9053 3.17173V3.39225L21.2518 18.851C21.2834 20.5512 21.5666 20.803 23.8336 20.9604V21.7162C21.8501 21.5271 21.0945 21.4641 19.898 21.4641C18.7016 21.4641 17.9459 21.5271 15.9625 21.7162V20.9604C18.1035 20.8344 18.5756 20.4882 18.5756 19.0085V18.851L18.2921 2.54227L13.0974 16.584L12.7196 17.6231L12.2788 18.788L11.8696 19.9844L11.5232 21.0236H11.0508L10.7048 20.016L10.2637 18.788L9.82294 17.5602L9.44512 16.4581L4.28176 2.51066Z" fill="#939393"/>
<path d="M27.924 12.68C28.2389 9.05956 29.4353 7.2018 31.4504 7.2018C33.4968 7.2018 34.5357 8.96498 34.7249 12.68H27.924ZM32.0171 20.9289C29.1521 20.9289 27.8927 18.725 27.8611 13.8135H37.2435C37.1805 8.96498 35.197 6.38318 31.4817 6.38318C27.7035 6.38318 25.3422 9.43739 25.3422 14.2859C25.3422 19.1344 27.7035 21.9683 31.7652 21.9683C34.8506 21.9683 36.8656 20.0473 37.2751 16.8045H36.0156C35.6376 19.4806 34.2525 20.9289 32.0171 20.9289Z" fill="#939393"/>
<path d="M39.1179 7.54813V6.9814C40.9125 6.82409 41.983 6.63518 43.274 6.25711C43.4313 7.42219 43.4943 7.92571 43.5572 8.87027V9.21673C44.2497 7.42219 45.6037 6.38305 47.2406 6.38305C48.8149 6.38305 49.98 7.42219 49.98 8.93324C49.98 9.84644 49.4449 10.4448 48.6576 10.4448C47.9333 10.4448 47.3671 10.0037 47.3671 9.37428C47.3671 9.31131 47.3984 9.18562 47.4298 9.05943L47.4928 8.74458V8.46109C47.4928 8.02029 47.1147 7.70544 46.548 7.70544C44.911 7.70544 43.8718 9.68914 43.8718 12.8058V19.3861C43.8718 20.7399 44.1869 20.9918 46.1072 21.0861V21.7163C44.3758 21.5585 43.7145 21.5269 42.6127 21.5269C41.4792 21.5269 40.8181 21.5585 39.0865 21.7163V21.0861C41.007 20.9918 41.3532 20.7399 41.3532 19.3861V9.59456V9.09079C41.3219 7.73705 41.1643 7.57949 39.5273 7.54813H39.1179Z" fill="#939393"/>
<path d="M62.0238 6.10018V11.2949H61.3309C60.7642 8.5558 59.5998 7.23316 57.6786 7.23316C55.3178 7.23316 53.932 9.7836 53.932 14.2859C53.932 18.6938 55.1603 20.9289 57.584 20.9289C59.5366 20.9289 60.7012 19.5436 61.0793 16.7731H62.3698C61.9606 20.1419 60.1661 21.9683 57.3326 21.9683C53.6803 21.9683 51.1931 18.8825 51.1931 14.2859C51.1931 9.59469 53.7117 6.38318 57.427 6.38318C58.7807 6.38318 59.631 6.7294 60.6387 7.70532L61.4885 6.10018H62.0238Z" fill="#939393"/>
<path d="M67.1939 12.68C67.5088 9.05956 68.7052 7.2018 70.7203 7.2018C72.7667 7.2018 73.8056 8.96498 73.9948 12.68H67.1939ZM71.287 20.9289C68.4222 20.9289 67.1623 18.725 67.1309 13.8135H76.5133C76.4501 8.96498 74.4669 6.38318 70.7519 6.38318C66.9734 6.38318 64.6124 9.43739 64.6124 14.2859C64.6124 19.1344 66.9734 21.9683 71.0354 21.9683C74.1207 21.9683 76.1358 20.0473 76.5447 16.8045H75.2855C74.9077 19.4806 73.5226 20.9289 71.287 20.9289Z" fill="#939393"/>
<path d="M85.2327 21.1175C82.9657 21.1175 81.7695 18.7565 81.7695 14.2542C81.7695 9.68922 82.8711 7.45363 85.1381 7.45363C87.4678 7.45363 88.6642 9.84627 88.6642 14.475C88.6642 18.8508 87.4994 21.1175 85.2327 21.1175ZM91.1517 18.4417V0.264841C89.5774 0.684399 88.1602 0.936283 86.3975 1.12544V1.66057C88.381 1.66057 88.6328 1.88109 88.6328 3.51808V9.0279C87.4678 7.13903 86.5548 6.57204 84.8548 6.57204C81.486 6.57204 79.1248 9.75194 79.1248 14.2858C79.1248 18.8195 81.5174 21.9999 84.9492 21.9999C86.7437 21.9999 87.9718 21.181 88.8531 19.4178C88.9793 20.614 88.9793 20.74 89.2942 21.9367C90.5849 21.527 91.1203 21.401 92.9776 21.181L93.4497 21.1178V20.5827C91.3403 20.5194 91.1517 20.3621 91.1517 18.4417Z" fill="#939393"/>
<path d="M97.2241 12.68C97.5387 9.05956 98.7352 7.2018 100.75 7.2018C102.797 7.2018 103.835 8.96498 104.024 12.68H97.2241ZM101.317 20.9289C98.4519 20.9289 97.1925 18.725 97.1609 13.8135H106.543C106.48 8.96498 104.497 6.38318 100.782 6.38318C97.0034 6.38318 94.6421 9.43739 94.6421 14.2859C94.6421 19.1344 97.0034 21.9683 101.065 21.9683C104.15 21.9683 106.165 20.0473 106.574 16.8045H105.315C104.938 19.4806 103.552 20.9289 101.317 20.9289Z" fill="#939393"/>
<path d="M109.216 22V16.7416L109.908 16.7102C110.475 19.5753 111.797 20.9604 114.001 20.9604C115.859 20.9604 117.244 19.7323 117.244 18.1267C117.244 17.0562 116.646 16.3321 115.103 15.6395L113.906 15.1041L112.458 14.4433C110.16 13.3725 109.436 12.4909 109.436 10.6653C109.436 8.17779 111.388 6.47783 114.159 6.47783C115.387 6.47783 116.3 6.76132 117.37 7.48536L117.905 6.19434H118.472V11.0742H117.747C117.464 8.55587 116.425 7.35942 114.442 7.35942C112.773 7.35942 111.483 8.49289 111.483 9.97258C111.483 11.232 111.954 11.6412 114.82 12.9004L116.142 13.4673C118.534 14.506 119.385 15.5135 119.385 17.3713C119.385 20.0161 117.276 21.9052 114.316 21.9052C112.868 21.9052 111.734 21.5271 110.538 20.5828L109.782 22H109.216Z" fill="#939393"/>
<path d="M136.892 11.1376C138.561 11.1376 139.505 11.4206 140.229 12.1449C140.953 12.8691 141.363 14.2229 141.363 15.7339C141.363 18.8825 139.789 20.6459 136.986 20.6459H135.853C134.185 20.6459 133.901 20.3935 133.901 19.0084V11.1376H136.892ZM133.901 1.59787H136.577C139.222 1.59787 140.387 2.88864 140.387 5.81666C140.387 7.26449 140.041 8.30388 139.348 9.1225C138.655 9.90951 137.805 10.1614 136.042 10.1614H133.901V1.59787ZM143.189 5.75369C143.189 4.1162 142.496 2.66812 141.3 1.75492C140.229 0.967911 139.001 0.621449 136.955 0.621449H128.675V1.40895C130.941 1.53465 131.256 1.78678 131.256 3.48674V18.7568C131.256 20.4567 131.004 20.677 128.675 20.8662V21.6216H136.64C138.97 21.6216 140.229 21.3383 141.551 20.5195C143.126 19.5122 144.165 17.5917 144.165 15.6082C144.165 13.908 143.441 12.3654 142.213 11.4206C141.551 10.917 140.859 10.6336 139.726 10.413C141.993 9.5633 143.189 7.95767 143.189 5.75369Z" fill="#939393"/>
<path d="M149.304 12.68C149.619 9.05956 150.815 7.2018 152.83 7.2018C154.877 7.2018 155.916 8.96498 156.105 12.68H149.304ZM153.397 20.9289C150.532 20.9289 149.273 18.725 149.241 13.8135H158.623C158.56 8.96498 156.577 6.38318 152.862 6.38318C149.084 6.38318 146.723 9.43739 146.723 14.2859C146.723 19.1344 149.084 21.9683 153.145 21.9683C156.231 21.9683 158.246 20.0473 158.655 16.8045H157.396C157.018 19.4806 155.633 20.9289 153.397 20.9289Z" fill="#939393"/>
<path d="M160.29 7.67408V7.13895C162.116 6.88682 163.187 6.63518 164.446 6.19439C164.604 6.91818 164.698 7.73705 164.761 8.93349C165.894 7.23328 167.185 6.47763 169.011 6.47763C170.901 6.47763 172.537 7.45355 173.167 8.99621C173.482 9.75186 173.64 10.6335 173.64 11.8299V19.3864C173.64 20.7399 173.955 20.992 175.875 21.0864V21.7163C174.206 21.5588 173.577 21.5271 172.443 21.5271C171.278 21.5271 170.649 21.5588 169.011 21.7163V21.0864C170.712 21.0236 171.121 20.7085 171.121 19.4494V11.7356C171.121 8.99621 170.302 7.8946 168.287 7.8946C166.146 7.8946 165.013 9.24835 165.013 11.8299V19.4494C165.013 20.7085 165.422 21.0236 167.059 21.0864V21.7163C165.422 21.5588 164.792 21.5271 163.659 21.5271C162.557 21.5271 161.896 21.5588 160.259 21.7163V21.0864C162.179 20.992 162.494 20.7399 162.494 19.3864V9.65753V9.18562C162.463 7.8946 162.274 7.70544 160.699 7.70544C160.605 7.70544 160.448 7.67408 160.29 7.67408Z" fill="#939393"/>
<path d="M177.099 21.6216L185.631 7.5796H181.758C179.712 7.5796 179.208 8.02039 178.075 10.8538H177.445L178.169 6.76122H189L180.436 20.8032H184.12C186.261 20.8032 187.142 19.9527 188.087 17.0879H188.748L187.929 21.6216H177.099Z" fill="#939393"/>
</svg>
