<svg width="101" height="30" viewBox="0 0 101 30" fill="none" xmlns="http://www.w3.org/2000/svg">
<path d="M82.5782 0H85.3759V2.44248C90.1721 2.57571 95.1903 2.46469 100.075 2.5091V5.08481C95.3013 5.21803 90.2831 5.10701 85.4203 5.15142C85.3093 7.94917 85.3537 10.9246 85.3537 13.8555C85.3537 16.8087 85.1095 19.7175 85.82 22.0934C86.5083 24.4026 88.2181 25.7127 90.4385 26.2456C93.3029 26.9339 97.2997 26.3566 99.187 24.7357C99.8088 25.3574 100.364 26.0458 100.875 26.7785C98.4765 28.6215 94.946 29.5541 90.9492 29.0656C87.3521 28.6215 84.8208 27.0227 83.4885 24.114C82.1119 21.0942 82.4893 16.8753 82.4893 12.6787V0.244248C82.5115 0.0888176 82.5115 0 82.5782 0Z" fill="#939393"/>
<path d="M23.2258 28.5993H20.3614V17.808C20.3614 13.2338 20.7389 8.54872 18.3186 6.37269C15.7873 4.10784 10.5249 4.17446 7.34965 5.72876C4.88497 6.9278 3.10862 9.08163 2.86437 12.6121C2.5091 17.8524 3.13082 23.2702 2.86437 28.5993H0V3.15305H2.86437V6.06183C4.77394 3.86359 7.54949 2.17606 11.5019 1.93181C18.03 1.50993 22.0934 4.13005 23.0038 9.63674C23.47 12.4789 23.2258 15.7207 23.2258 19.0292V28.5993Z" fill="#939393"/>
<path d="M53.1129 16.742H30.1092C30.4866 21.8046 33.1956 25.4684 38.0361 26.3121C43.8315 27.3335 47.8949 24.6246 49.649 20.7166H52.5578C50.8259 25.2241 47.6506 28.1107 42.588 28.9544C34.0393 30.3755 28.0219 24.9577 27.1782 17.4082C26.8673 14.5438 27.2892 11.746 28.2218 9.48119C29.8871 5.41779 33.7285 2.28697 39.0797 1.9539C43.8315 1.64304 47.362 3.48601 49.5824 5.86188C51.9805 8.39318 53.2683 11.8127 53.1129 16.742ZM46.9845 7.12753C45.2748 5.52881 42.6324 4.35198 39.3906 4.55182C33.6841 4.90709 30.8419 8.61522 30.1092 14.1219H50.1153C49.8489 11.1243 48.7831 8.81506 46.9845 7.12753Z" fill="#939393"/>
<path d="M54.2675 2.57575C55.3555 2.44252 56.6878 2.55354 57.8868 2.50913C60.5292 5.52893 63.1937 8.70416 65.8138 11.9016C66.0136 12.1458 66.7908 13.2339 66.924 13.2339C67.1016 13.2339 67.8788 12.1458 68.1009 11.9016C70.6322 8.79298 73.2967 5.55114 75.8502 2.50913H79.1808C79.2697 2.75338 78.8922 2.99763 78.6479 3.26408C75.3395 7.14985 71.9866 11.3687 68.6782 15.2767C72.3197 19.7175 76.2721 24.1806 79.7582 28.5771C78.7368 28.3328 77.3379 28.888 76.2499 28.5771C75.939 28.4883 75.3173 27.6445 74.962 27.2448C72.2753 24.0474 69.3665 20.5391 66.7908 17.4305C63.5267 21.0498 60.5292 24.9356 57.2873 28.5771H53.9122C53.8456 28.3551 54.2009 28.022 54.4451 27.7555C57.909 23.7143 61.5283 19.4289 65.0144 15.3877C61.4839 11.0578 57.8646 6.81679 54.2675 2.57575Z" fill="#939393"/>
</svg>
