<svg width="118" height="38" viewBox="0 0 118 38" fill="none" xmlns="http://www.w3.org/2000/svg">
<path d="M24.2624 30.6841H29.7763V14.627H24.2624V30.6841ZM31.6846 3.70043H27.9687V7.41043H31.6846V3.70043ZM10.8432 5.50516H5.51391V10.1618H10.4632C13.6038 10.1618 15.4114 11.6817 15.4114 14.5324C15.4114 17.3832 13.6038 18.9976 10.4632 18.9976H5.51391V10.2611H0V30.6841H5.51391V23.6531H10.7485C17.1243 23.6531 20.8366 20.2327 20.8366 14.3421C20.8366 8.831 17.2202 5.50516 10.8432 5.50516ZM35.3969 0H24.2624V11.1109H35.3969V0ZM33.5881 9.21517H26.1659V1.79995H33.5881V9.21517ZM65.9451 5.50516H60.9011V10.1618H65.6586C68.7992 10.1618 70.608 11.6817 70.608 14.5324C70.608 17.3832 68.7992 18.9976 65.6586 18.9976H60.9011V10.2611H55.3872V30.6841H60.9011V23.6531H65.9451C72.3209 23.6531 76.032 20.2327 76.032 14.3421C76.032 8.831 72.3209 5.50516 65.9451 5.50516ZM112.291 11.3969L107.532 23.3646L102.773 11.3969H97.0639L104.677 30.6841L101.727 38H107.532L118 11.3969H112.291ZM87.5477 11.3011C84.2165 11.3011 81.6466 12.0611 78.7913 13.4865L80.5054 17.2874C82.5036 16.1469 84.5018 15.5772 86.3094 15.5772C88.9741 15.5772 90.307 16.7177 90.307 18.8085V19.1891H84.9741C80.2154 19.1891 77.6466 21.3744 77.6466 24.9851C77.6466 28.5 80.1207 30.9689 84.3076 30.9689C86.9723 30.9689 88.8758 30.0199 90.3981 28.4043V30.4938H95.8233V17.9528C95.6423 13.867 92.6864 11.3011 87.5477 11.3011ZM90.7841 24.2263C90.2135 25.8408 88.5953 27.1716 86.3106 27.1716C84.4083 27.1716 83.266 26.2213 83.266 24.7014C83.266 23.1815 84.3124 22.5161 86.4065 22.5161H90.7841V24.2263ZM43.8655 26.5038C41.2009 26.5038 39.2986 24.413 39.2986 21.2775C39.2986 18.2376 41.2009 16.1469 43.8655 16.1469C45.769 16.1469 47.1966 16.9068 48.2443 18.2377L51.9602 15.5772C50.2473 13.0113 47.2973 11.4914 43.585 11.4914C37.7798 11.3969 33.7835 15.3869 33.7835 21.2775C33.7835 27.168 37.7798 31.0647 43.585 31.0647C47.5826 31.0647 50.5374 29.449 52.1508 26.7886L48.3438 24.2239C47.3872 25.7438 45.8649 26.5038 43.8655 26.5038Z" fill="#939393"/>
</svg>
