<svg width="131" height="33" viewBox="0 0 131 33" fill="none" xmlns="http://www.w3.org/2000/svg">
<path d="M0 0V32.3015L130.247 32.3892V0H0V0Z" fill="#939393"/>
<path d="M52.0768 7.74806L44.7827 18.5495C44.024 19.6925 42.6932 20.3835 41.3002 20.3835C39.032 20.3835 37.1544 18.5198 37.1544 16.2709C37.1544 13.9888 39.032 12.1285 41.3161 12.1285C41.5425 12.0995 41.8462 12.0678 42.0581 12.0678C43.6327 12.0678 45.2369 12.7284 46.3268 13.8397L48.5053 10.5381C46.8107 8.79865 44.2981 7.68524 41.7848 7.68524C37.093 7.68524 32.7954 11.557 32.7954 16.2391C32.7954 20.8936 36.6395 24.7039 41.3327 24.7039C43.6023 24.7039 45.8719 23.7438 47.4464 22.152H52.4709L52.5007 24.7039H56.8612V7.74806H52.0769H52.0768ZM50.0812 18.43L52.4709 15.1015L52.5007 18.43H50.0814H50.0812Z" fill="white"/>
<path d="M65.2156 24.7037H60.8565V11.7072H57.4666V7.77613L68.6041 7.7478V11.7072H65.2156V24.7037V24.7037Z" fill="white"/>
<path d="M83.1351 7.74795L78.776 7.74906L78.7456 14.0796H73.599L73.5664 7.74768H69.2108V24.7035H73.5988V18.01H78.7759V24.7035H83.135V7.74768L83.1351 7.74795Z" fill="white"/>
<path d="M118.066 7.74805V15.6386L112.073 7.74805L108.106 7.77566L108.076 13.9598C107.078 10.358 103.657 7.74805 99.8427 7.74805C95.1516 7.74805 91.3068 11.557 91.3068 16.2391C91.3068 17.7425 91.7604 19.2694 92.4858 20.592H88.1675V7.74805H83.7256V24.7039H93.8802V22.3314C95.4844 23.8031 97.6636 24.7039 99.8427 24.7039C103.657 24.7039 107.017 22.152 108.076 18.5494L108.106 24.7039H112.497V16.4524L118.457 24.7039H122.422L122.427 7.74805H118.067H118.066ZM99.8429 20.5623C97.4518 20.5623 95.4845 18.6419 95.4845 16.2391C95.4845 13.8694 97.4518 11.9194 99.8429 11.9194C102.266 11.9194 104.233 13.8694 104.233 16.2391C104.233 18.6419 102.266 20.5623 99.8429 20.5623Z" fill="white"/>
<path d="M27.5237 20.5922V18.219H32.2018L32.1935 14.0795H27.5237V11.9196H32.6801L32.6712 7.74829L22.743 7.7759V13.599C21.7139 10.4183 18.7463 8.07617 15.3564 7.7759L7.81932 7.74829V24.7035H15.3875C18.7463 24.4046 21.7139 22.0639 22.743 18.9121V24.7035H32.6802L32.6714 20.5922H27.524H27.5237ZM17.9297 18.821C17.6584 19.9627 16.5677 20.771 15.3874 20.8014H12.6028V11.707H15.3874C16.5677 11.707 17.6584 12.5512 17.9297 13.7198C18.203 14.5005 18.3542 15.4007 18.3542 16.2393C18.3542 17.1118 18.203 18.0106 17.9297 18.821" fill="white"/>
</svg>
