<svg width="59" height="76" viewBox="0 0 59 76" fill="none" xmlns="http://www.w3.org/2000/svg">
<path opacity="0.997" fill-rule="evenodd" clip-rule="evenodd" d="M7.92286 0.0018213C21.8144 -0.00322833 35.7059 0.0018213 49.5974 0.0220198C50.4457 0.213905 50.9305 0.739066 51.0466 1.5975C51.0769 15.085 51.0769 28.5675 51.0466 42.0551C50.9557 42.8984 50.5013 43.4235 49.6782 43.6306C35.7311 43.6609 21.7841 43.6609 7.83197 43.6306C7.00888 43.4235 6.55441 42.8984 6.46352 42.0551C6.43322 28.5675 6.43322 15.085 6.46352 1.5975C6.59481 0.734017 7.07957 0.203806 7.92286 0.0018213Z" fill="#939393"/>
<path fill-rule="evenodd" clip-rule="evenodd" d="M9.01357 2.81957C13.7653 2.73878 18.4614 3.19324 23.102 4.18802C26.9801 5.0313 30.6714 6.3947 34.1607 8.26811C36.3219 9.46992 38.3014 10.9293 40.089 12.6411C38.3266 11.616 36.4633 10.803 34.494 10.2021C31.6359 9.36388 28.7223 8.83367 25.748 8.60644C21.269 8.30346 16.8102 8.4903 12.3766 9.172C12.3211 9.15685 12.2655 9.1417 12.21 9.1316C11.3667 6.91986 10.2861 4.83437 8.97318 2.88521C8.99842 2.86502 9.00852 2.84482 9.01357 2.81957Z" fill="#FEFEFE"/>
<path fill-rule="evenodd" clip-rule="evenodd" d="M21.8851 10.9747C24.9351 10.8787 27.98 10.9999 31.0097 11.3332C33.7416 11.6362 36.3775 12.3128 38.9175 13.353C40.7151 14.1256 42.2654 15.2416 43.5631 16.6959C44.1741 17.4331 44.6639 18.2461 45.0325 19.1349C45.1386 19.3671 45.2093 19.6045 45.2446 19.8519C44.2701 18.8268 43.1288 18.0492 41.8159 17.519C39.8264 16.7565 37.7611 16.2818 35.6352 16.0899C31.8126 15.7769 28.0002 15.8627 24.1978 16.3424C20.961 16.7211 17.7646 17.317 14.6086 18.13C14.2399 16.0142 13.7501 13.9236 13.1391 11.8634C13.5532 11.7624 13.9723 11.6816 14.4015 11.6311C16.891 11.3079 19.3855 11.0908 21.8851 10.9747Z" fill="#FEFEFE"/>
<path fill-rule="evenodd" clip-rule="evenodd" d="M32.0197 18.2512C34.5899 18.1603 37.14 18.3219 39.6749 18.7359C41.6392 19.0743 43.4469 19.7863 45.0982 20.882C46.7646 22.0636 47.7896 23.6543 48.1683 25.6539C46.5878 24.6844 44.876 24.0633 43.0379 23.7805C39.9425 23.3765 36.8471 23.3614 33.7416 23.7401C27.4194 24.5682 21.264 26.073 15.2802 28.2595C15.3256 25.8761 15.2246 23.4927 14.9873 21.1093C20.5722 19.5792 26.2479 18.6248 32.0197 18.2512Z" fill="#FEFEFE"/>
<path fill-rule="evenodd" clip-rule="evenodd" d="M39.8415 25.7347C41.3867 25.6943 42.9319 25.7549 44.467 25.9215C49.047 26.583 50.375 29.0169 48.441 33.2182C47.6634 34.7483 46.7393 36.1773 45.6637 37.5053C45.9718 36.8388 46.2798 36.1621 46.5878 35.4855C46.8605 34.8189 47.0574 34.1322 47.1786 33.4253C47.3301 32.3648 46.911 31.6528 45.9162 31.2792C45.184 31.062 44.4316 30.9661 43.6641 30.9863C42.0482 31.0115 40.4525 31.1832 38.872 31.5114C35.4332 32.2487 32.055 33.2031 28.7374 34.3695C23.1273 36.3035 17.6383 38.5254 12.2756 41.0451C13.2906 39.0455 14.038 36.9448 14.5025 34.7382C14.6944 33.7282 14.8711 32.7234 15.0277 31.7084C21.4861 29.1785 28.1466 27.3657 35.004 26.2598C36.6148 26.0225 38.2256 25.8458 39.8415 25.7347Z" fill="#FEFEFE"/>
<path opacity="0.986" fill-rule="evenodd" clip-rule="evenodd" d="M51.4506 49.4125C54.2229 49.2105 56.3993 50.2355 57.9899 52.4826C59.116 54.3914 59.2876 56.3809 58.4949 58.4563C57.495 60.5923 55.8337 61.9052 53.5109 62.39C50.976 62.7839 48.8248 62.0618 47.0575 60.2237C45.381 58.1685 45.0174 55.8962 45.9617 53.4118C46.8201 51.5434 48.229 50.3062 50.1882 49.6902C50.6073 49.569 51.0265 49.4781 51.4506 49.4125ZM51.7435 51.8969C53.4907 51.7504 54.7329 52.4675 55.4651 54.043C55.9397 55.3205 55.9397 56.593 55.4651 57.8706C54.7228 59.4309 53.4806 60.1378 51.7435 59.9965C50.4155 59.845 49.4964 59.1481 48.9864 57.916C48.4865 56.5425 48.5168 55.1842 49.0723 53.8359C49.6328 52.725 50.5215 52.0837 51.7435 51.8969Z" fill="#939393"/>
<path opacity="0.985" fill-rule="evenodd" clip-rule="evenodd" d="M17.0475 49.6648C19.7794 49.6446 21.8598 50.7808 23.2939 53.0733C24.3998 55.2093 24.3846 57.3402 23.2535 59.4661C21.7386 61.8193 19.5723 62.9201 16.7546 62.7686C13.7703 62.4202 11.7858 60.8295 10.8062 57.9967C10.1497 55.1083 10.988 52.7602 13.3108 50.9525C14.4369 50.1748 15.6841 49.7456 17.0475 49.6648ZM16.8354 52.1896C19.2037 52.1088 20.557 53.245 20.8953 55.5981C21.067 56.9211 20.759 58.1128 19.9712 59.1733C18.9613 60.1579 17.7646 60.5013 16.3759 60.2034C15.0529 59.8196 14.2349 58.9612 13.9167 57.618C13.5885 56.2798 13.7451 55.0073 14.3813 53.7904C14.957 52.8814 15.775 52.3462 16.8354 52.1896Z" fill="#939393"/>
<path opacity="0.988" fill-rule="evenodd" clip-rule="evenodd" d="M0.479706 49.7507C2.82273 49.7709 5.16071 49.8164 7.50373 49.8972C9.19536 50.3264 10.1295 51.412 10.3012 53.1542C10.382 55.9416 9.04387 57.517 6.28677 57.8857C5.41824 57.9059 4.5497 57.916 3.68117 57.9059C3.66602 59.3097 3.65087 60.7084 3.64077 62.1122H0.570599C0.535252 57.9917 0.504954 53.8712 0.479706 49.7507ZM3.67612 52.1897C4.54465 52.1846 5.41319 52.1897 6.28172 52.2099C7.04927 52.4725 7.42799 53.0128 7.41789 53.8308C7.42294 54.6691 7.02907 55.2245 6.24133 55.4921C5.38794 55.5477 4.53455 55.5679 3.67612 55.5527V52.1897ZM24.8694 49.7507C27.1821 49.7457 29.4948 49.781 31.8076 49.8568C33.4891 50.2506 34.4384 51.3111 34.6455 53.033C34.8575 54.8104 34.2061 56.1486 32.6913 57.0474C34.0446 58.729 35.3928 60.4206 36.731 62.1172C35.3726 62.1677 34.0092 62.1576 32.6509 62.097C31.5551 60.6125 30.4644 59.1228 29.3686 57.6382C28.9192 57.618 28.4698 57.6079 28.0204 57.618C28.0305 59.1178 28.0153 60.6175 27.98 62.1172H24.9098C24.8795 57.9917 24.8694 53.8712 24.8694 49.7507ZM28.0254 52.1038C28.8384 52.0988 29.6514 52.1038 30.4644 52.124C31.0956 52.2048 31.5096 52.5482 31.7066 53.1542C31.9187 53.9015 31.7722 54.5681 31.2673 55.1538C31.0047 55.3861 30.6967 55.5123 30.3432 55.5325C29.5706 55.5628 28.803 55.5578 28.0305 55.5123C28.0254 54.3762 28.0254 53.24 28.0254 52.1038ZM35.1757 49.7507H45.9819V52.4422H42.1543V62.1576H38.9982V52.4422H35.1706C35.1757 51.5433 35.1757 50.6496 35.1757 49.7507Z" fill="#939393"/>
<path opacity="0.982" fill-rule="evenodd" clip-rule="evenodd" d="M4.0094 64.637C5.41825 64.5915 6.7463 64.8894 8.00365 65.5206C8.0491 65.5711 8.0592 65.6267 8.02385 65.6873C7.70573 66.369 7.3674 67.0406 7.01393 67.7071C6.22619 67.2779 5.3829 67.0153 4.48912 66.9093C3.71652 66.9244 3.3479 67.3183 3.39335 68.0859C3.47919 68.3131 3.62563 68.4898 3.83266 68.611C4.60526 68.9847 5.393 69.3382 6.18579 69.6613C7.86731 70.4693 8.42277 71.767 7.84712 73.5495C7.4179 74.4938 6.71095 75.1351 5.72122 75.4634C4.76684 75.7613 3.80237 75.8168 2.81769 75.63C1.84311 75.4937 0.919031 75.1957 0.040397 74.7463C0.0201985 74.7211 0.00504962 74.6958 0 74.6605C0.26763 73.9333 0.54031 73.2112 0.818039 72.4942C1.85321 73.0143 2.94898 73.3324 4.10029 73.4637C5.11022 73.4486 5.49904 72.9587 5.27686 71.9943C5.12537 71.8024 4.93348 71.6509 4.7113 71.5549C3.94881 71.2873 3.20651 70.9793 2.48441 70.6309C2.02995 70.3885 1.61588 70.0855 1.24221 69.727C0.474665 68.611 0.434268 67.4647 1.11597 66.2781C1.82796 65.2783 2.78739 64.7329 4.0094 64.637Z" fill="#939393"/>
<path opacity="0.983" fill-rule="evenodd" clip-rule="evenodd" d="M52.0364 64.6825C54.3895 64.5259 56.2326 65.4096 57.5657 67.3335C58.7221 69.419 58.6362 71.454 57.3132 73.4335C55.6266 75.4432 53.5058 76.1249 50.9406 75.4735C48.7693 74.7363 47.4564 73.2466 47.0069 70.9945C46.7898 68.3131 47.8755 66.369 50.2639 65.1723C50.8447 64.9248 51.4304 64.7633 52.0364 64.6825ZM52.2485 66.7831C54.1572 66.7074 55.2833 67.6011 55.6317 69.4746C55.8286 70.6511 55.5762 71.7166 54.8743 72.671C54.0411 73.4739 53.0513 73.7617 51.9101 73.5345C50.7942 73.2163 50.0872 72.4942 49.7842 71.3682C49.4914 70.1815 49.6428 69.0605 50.2488 68.0051C50.7437 67.3083 51.4102 66.9043 52.2485 66.7831Z" fill="#939393"/>
<path opacity="0.984" fill-rule="evenodd" clip-rule="evenodd" d="M22.2638 64.7228C23.6322 64.6572 24.9401 64.9147 26.1772 65.5005C26.2075 65.5762 26.2025 65.652 26.1571 65.7327C25.8591 66.3741 25.546 67.0053 25.2128 67.6264C23.9352 67.0507 22.6324 66.975 21.2993 67.3941C19.8299 68.0404 19.133 69.1715 19.2189 70.7773C19.5067 72.1458 20.3449 72.9689 21.7235 73.2365C22.4557 73.3728 23.1828 73.3627 23.91 73.1961C23.9504 71.9842 23.9655 70.7723 23.9504 69.5604H26.6418C26.6267 71.2166 26.6065 72.8679 26.5812 74.5241C24.5816 75.7209 22.4759 75.9633 20.254 75.2614C17.4111 74.1505 16.2396 72.0801 16.7446 69.0604C17.2192 66.9901 18.4715 65.652 20.5065 65.046C21.0822 64.8794 21.673 64.7784 22.2638 64.7228Z" fill="#939393"/>
<path opacity="0.986" fill-rule="evenodd" clip-rule="evenodd" d="M27.4346 64.7228C28.3334 64.7582 29.2272 64.7733 30.1261 64.7632C30.1059 67.1214 30.1261 69.4745 30.1867 71.8276C30.3533 72.4538 30.7371 72.883 31.343 73.1103C32.156 73.3526 32.9437 73.2819 33.6961 72.8982C34.2011 72.5144 34.4637 72.0044 34.4738 71.3631C34.494 69.1614 34.5041 66.9598 34.494 64.7582C35.3928 64.7683 36.2866 64.7531 37.1854 64.7178C37.1905 67.0608 37.1854 69.3988 37.1652 71.7418C36.9077 73.6051 35.8776 74.8221 34.0749 75.3775C32.4893 75.837 30.9643 75.6957 29.4898 74.9584C28.1062 74.1252 27.4043 72.8881 27.3892 71.257C27.4346 69.0806 27.4498 66.9043 27.4346 64.7228ZM37.8671 64.7228C39.579 64.7531 41.2857 64.7733 42.9975 64.7834C44.876 64.7178 46.0273 65.5964 46.4464 67.4143C46.6434 68.5858 46.3707 69.621 45.6284 70.5248C45.3608 70.7571 45.0729 70.9692 44.7649 71.156C45.9566 72.6305 47.1382 74.1151 48.2997 75.6149C47.0928 75.6502 45.8859 75.6351 44.6841 75.5745C43.7449 74.2868 42.8057 72.9941 41.8664 71.7065C41.4625 71.6661 41.0534 71.6509 40.6444 71.6661V75.6199H37.9126C37.9075 71.9842 37.8924 68.3535 37.8671 64.7228ZM40.6848 66.8235C41.4019 66.8184 42.1139 66.8235 42.8309 66.8437C43.5833 67.0255 43.962 67.5102 43.9671 68.2929C43.9671 68.9645 43.6691 69.4442 43.0834 69.7421C42.6744 69.8179 42.2603 69.8532 41.8412 69.8482C41.4574 69.8381 41.0686 69.8229 40.6848 69.8078V66.8235Z" fill="#939393"/>
<path opacity="0.978" fill-rule="evenodd" clip-rule="evenodd" d="M9.05902 64.9753H16.0426V67.3285H11.8363V68.9241H15.6639V71.2369H11.8363V73.0446H16.3759V75.3978H9.05902V64.9753Z" fill="#939393"/>
</svg>
