<svg width="31" height="31" viewBox="0 0 31 31" fill="none" xmlns="http://www.w3.org/2000/svg">
<path d="M15.5 15.5C17.5554 15.5 19.5267 14.6835 20.9801 13.2301C22.4335 11.7767 23.25 9.80543 23.25 7.75C23.25 5.69457 22.4335 3.72333 20.9801 2.26992C19.5267 0.816516 17.5554 0 15.5 0C13.4446 0 11.4733 0.816516 10.0199 2.26992C8.56652 3.72333 7.75 5.69457 7.75 7.75C7.75 9.80543 8.56652 11.7767 10.0199 13.2301C11.4733 14.6835 13.4446 15.5 15.5 15.5ZM20.6667 7.75C20.6667 9.12029 20.1223 10.4344 19.1534 11.4034C18.1844 12.3723 16.8703 12.9167 15.5 12.9167C14.1297 12.9167 12.8156 12.3723 11.8466 11.4034C10.8777 10.4344 10.3333 9.12029 10.3333 7.75C10.3333 6.37971 10.8777 5.06555 11.8466 4.09661C12.8156 3.12768 14.1297 2.58333 15.5 2.58333C16.8703 2.58333 18.1844 3.12768 19.1534 4.09661C20.1223 5.06555 20.6667 6.37971 20.6667 7.75ZM31 28.4167C31 31 28.4167 31 28.4167 31H2.58333C2.58333 31 0 31 0 28.4167C0 25.8333 2.58333 18.0833 15.5 18.0833C28.4167 18.0833 31 25.8333 31 28.4167ZM28.4167 28.4063C28.4141 27.7708 28.0188 25.8592 26.2673 24.1077C24.583 22.4233 21.4132 20.6667 15.5 20.6667C9.58417 20.6667 6.417 22.4233 4.73267 24.1077C2.98117 25.8592 2.5885 27.7708 2.58333 28.4063H28.4167Z" fill="#00ABE6"/>
</svg>
