<svg width="50" height="50" viewBox="0 0 50 50" fill="none" xmlns="http://www.w3.org/2000/svg">
<circle cx="25" cy="25" r="25" fill="#72C593"/>
<path d="M27.75 28C28.7165 28 29.5 28.7835 29.5 29.75L29.4989 30.7121C29.6156 32.9012 27.9879 34.009 25.0668 34.009C22.1579 34.009 20.5 32.9192 20.5 30.75V29.75C20.5 28.7835 21.2835 28 22.25 28H27.75ZM16.75 23L21.126 23.0001C21.0438 23.3197 21 23.6547 21 24C21 25.1155 21.4567 26.1244 22.1932 26.8499L22.3553 27.001L22.25 27C21.9486 27 21.6586 27.0485 21.3873 27.138C20.5226 27.4235 19.8477 28.1264 19.6012 29.0082L19.5668 29.009C16.6579 29.009 15 27.9192 15 25.75V24.75C15 23.7835 15.7835 23 16.75 23ZM33.25 23C34.2165 23 35 23.7835 35 24.75L34.9989 25.7121C35.1156 27.9012 33.4879 29.009 30.5668 29.009L30.3985 29.0073C30.1596 28.1534 29.5188 27.4673 28.6929 27.1659C28.4576 27.08 28.2073 27.0254 27.947 27.0069L27.75 27L27.6447 27.001C28.4758 26.268 29 25.1952 29 24C29 23.6547 28.9563 23.3197 28.874 23.0001L33.25 23ZM25 21C26.6569 21 28 22.3432 28 24C28 25.6569 26.6569 27 25 27C23.3431 27 22 25.6569 22 24C22 22.3432 23.3431 21 25 21ZM19.5 16C21.1568 16 22.5 17.3432 22.5 19C22.5 20.6568 21.1568 22 19.5 22C17.8432 22 16.5 20.6568 16.5 19C16.5 17.3432 17.8432 16 19.5 16ZM30.5 16C32.1569 16 33.5 17.3432 33.5 19C33.5 20.6568 32.1569 22 30.5 22C28.8431 22 27.5 20.6568 27.5 19C27.5 17.3432 28.8431 16 30.5 16Z" fill="white"/>
</svg>
