<svg width="50" height="50" viewBox="0 0 50 50" fill="none" xmlns="http://www.w3.org/2000/svg">
<circle cx="25" cy="25" r="25" fill="#72C593"/>
<path d="M22.7727 30.5455C24.4515 30.5455 26.0059 30.0133 27.2764 29.1086L31.7886 33.6206C32.2945 34.1265 33.1146 34.1265 33.6206 33.6206C34.1265 33.1146 34.1265 32.2945 33.6206 31.7886L29.1086 27.2764C30.0133 26.0059 30.5455 24.4515 30.5455 22.7727C30.5455 18.4799 27.0655 15 22.7727 15C18.4799 15 15 18.4799 15 22.7727C15 27.0655 18.4799 30.5455 22.7727 30.5455ZM22.7727 27.9546C19.9108 27.9546 17.5909 25.6347 17.5909 22.7727C17.5909 19.9108 19.9108 17.5909 22.7727 17.5909C25.6347 17.5909 27.9546 19.9108 27.9546 22.7727C27.9546 25.6347 25.6347 27.9546 22.7727 27.9546Z" fill="white"/>
</svg>
