<svg width="50" height="50" viewBox="0 0 50 50" fill="none" xmlns="http://www.w3.org/2000/svg">
<circle cx="25" cy="25" r="25" fill="#72C593"/>
<path d="M13 15.8786C13 15.3934 13.3934 15 13.8786 15H14.5325C15.646 15 16.3126 15.7485 16.6938 16.4444C16.9479 16.9082 17.1318 17.4462 17.2755 17.9332C17.3145 17.9302 17.3539 17.9286 17.3938 17.9286H32.0337C33.0062 17.9286 33.7085 18.8592 33.4419 19.7945L31.3007 27.3023C30.9062 28.6862 29.6417 29.6404 28.2028 29.6404H21.235C19.7841 29.6404 18.5123 28.6706 18.1284 27.2715L17.2375 24.0254L15.7631 19.0482L15.7607 19.0395C15.5783 18.3743 15.4072 17.7529 15.1528 17.2886C14.9058 16.8378 14.7089 16.7572 14.5325 16.7572H13.8786C13.3934 16.7572 13 16.3638 13 15.8786Z" fill="white"/>
<path d="M20.6144 35.5002C21.9083 35.5002 22.9572 34.4513 22.9572 33.1573C22.9572 31.8634 21.9083 30.8145 20.6144 30.8145C19.3204 30.8145 18.2715 31.8634 18.2715 33.1573C18.2715 34.4513 19.3204 35.5002 20.6144 35.5002Z" fill="white"/>
<path d="M28.8144 35.5002C30.1084 35.5002 31.1573 34.4513 31.1573 33.1573C31.1573 31.8634 30.1084 30.8145 28.8144 30.8145C27.5205 30.8145 26.4716 31.8634 26.4716 33.1573C26.4716 34.4513 27.5205 35.5002 28.8144 35.5002Z" fill="white"/>
</svg>
