<svg width="50" height="50" viewBox="0 0 50 50" fill="none" xmlns="http://www.w3.org/2000/svg">
<circle cx="25" cy="25" r="25" fill="#72C593"/>
<path d="M34.7804 19.7804C34.995 19.5659 35.0591 19.2434 34.943 18.9631C34.827 18.6828 34.5535 18.5001 34.2501 18.5001L31.4999 18.5V15.75C31.4999 15.4467 31.3172 15.1732 31.0369 15.0571C30.7567 14.941 30.4341 15.0052 30.2196 15.2197L27.7197 17.7198C27.579 17.8604 27.5 18.0512 27.5 18.2501L27.5001 21.0858L25.5181 23.0678C25.3528 23.0237 25.1792 23.0001 25 23.0001C23.8954 23.0001 23 23.8955 23 25.0001C23 26.1047 23.8954 27.0001 25 27.0001C26.1046 27.0001 27 26.1047 27 25.0001C27 24.8209 26.9764 24.6473 26.9323 24.4821L28.9142 22.5001H31.7501C31.949 22.5001 32.1397 22.4211 32.2804 22.2804L34.7804 19.7804ZM25 15.0001C26.2026 15.0001 27.3556 15.2124 28.4236 15.6015L27.0125 17.0127C26.9499 17.0753 26.8924 17.1423 26.8405 17.2128C26.2496 17.0737 25.6334 17.0001 25 17.0001C20.5817 17.0001 17 20.5818 17 25.0001C17 29.4184 20.5817 33.0001 25 33.0001C29.4183 33.0001 33 29.4184 33 25.0001C33 24.3667 32.9264 23.7505 32.7873 23.1596C32.8578 23.1077 32.9248 23.0503 32.9875 22.9875L34.3986 21.5765C34.7877 22.6445 35 23.7975 35 25.0001C35 30.5229 30.5228 35.0001 25 35.0001C19.4771 35.0001 15 30.5229 15 25.0001C15 19.4772 19.4771 15.0001 25 15.0001ZM25 19.0001C25.518 19.0001 26.0206 19.0657 26.5 19.1891L26.5001 20.6716L26.0858 21.0859C26.0693 21.1023 26.0532 21.119 26.0374 21.1359C25.7066 21.0473 25.3588 21.0001 25 21.0001C22.7909 21.0001 21 22.7909 21 25.0001C21 27.2092 22.7909 29.0001 25 29.0001C27.2091 29.0001 29 27.2092 29 25.0001C29 24.6413 28.9528 24.2935 28.8642 23.9627C28.8811 23.9469 28.8977 23.9308 28.9142 23.9143L29.3284 23.5001H30.811C30.9344 23.9795 31 24.4822 31 25.0001C31 28.3138 28.3137 31.0001 25 31.0001C21.6863 31.0001 19 28.3138 19 25.0001C19 21.6864 21.6863 19.0001 25 19.0001Z" fill="white"/>
</svg>
