<svg width="50" height="50" viewBox="0 0 50 50" fill="none" xmlns="http://www.w3.org/2000/svg">
<circle cx="25" cy="25" r="25" fill="#72C593"/>
<path d="M24.5045 15.2995C25.1376 15.2295 25.5939 14.6595 25.5239 14.0265C25.4539 13.3934 24.8839 12.9371 24.2509 13.0071C18.4844 13.6451 14 18.5323 14 24.4686C14 30.8374 19.163 36.0005 25.5319 36.0005C31.4666 36.0005 36.3527 31.5185 36.9929 25.7541C37.0631 25.1211 36.607 24.5509 35.9739 24.4807C35.3409 24.4104 34.7708 24.8666 34.7006 25.4995C34.1887 30.1088 30.2782 33.6941 25.5319 33.6941C20.4368 33.6941 16.3064 29.5636 16.3064 24.4686C16.3064 19.721 19.8935 15.8096 24.5045 15.2995Z" fill="white"/>
<path d="M28.7231 13.3877C28.11 13.2155 27.4733 13.5729 27.301 14.1861C27.1287 14.7993 27.4862 15.436 28.0994 15.6082C28.4314 15.7015 28.7558 15.8131 29.0713 15.942C29.6609 16.1829 30.3341 15.9002 30.575 15.3106C30.8158 14.7211 30.5332 14.0478 29.9435 13.807C29.5474 13.6451 29.1401 13.5049 28.7231 13.3877Z" fill="white"/>
<path d="M31.7007 16.041C32.1312 15.5716 32.8607 15.54 33.3301 15.9704C33.5741 16.1942 33.8082 16.4284 34.0319 16.6724C34.4623 17.1419 34.4305 17.8714 33.961 18.3017C33.4915 18.7321 32.762 18.7003 32.3317 18.2308C32.153 18.036 31.9661 17.8489 31.7713 17.6703C31.3019 17.2398 31.2703 16.5104 31.7007 16.041Z" fill="white"/>
<path d="M24.3787 17.5496C25.0156 17.5496 25.5319 18.0659 25.5319 18.7027V24.4687H28.9915C29.6284 24.4687 30.1447 24.985 30.1447 25.6219C30.1447 26.2588 29.6284 26.7751 28.9915 26.7751H24.3787C23.7418 26.7751 23.2255 26.2588 23.2255 25.6219V18.7027C23.2255 18.0659 23.7418 17.5496 24.3787 17.5496Z" fill="white"/>
<path d="M34.6876 19.4211C35.277 19.18 35.9505 19.4623 36.1916 20.0518C36.3155 20.3547 36.4268 20.6642 36.5248 20.9795C36.5556 21.0784 36.585 21.1778 36.613 21.2778C36.7853 21.8909 36.4278 22.5276 35.8146 22.6999C35.2015 22.872 34.5648 22.5145 34.3925 21.9014C34.3702 21.8218 34.3468 21.7426 34.3223 21.6639C34.2442 21.4128 34.1557 21.1664 34.057 20.9251C33.8158 20.3356 34.0981 19.6623 34.6876 19.4211Z" fill="white"/>
</svg>
