<svg width="50" height="50" viewBox="0 0 50 50" fill="none" xmlns="http://www.w3.org/2000/svg">
<circle cx="25" cy="25" r="25" fill="#72C593"/>
<path d="M23.5 17.5C23.9142 17.5 24.25 17.8358 24.25 18.25V26.25H32.25C32.6297 26.25 32.9435 26.5322 32.9932 26.8982L33 27C33 31.9706 28.9706 35.5 24 35.5C19.0294 35.5 15 31.4706 15 26.5C15 21.5294 18.5294 17.5 23.5 17.5ZM26.5 15C31.4706 15 35.5 19.0294 35.5 24C35.5 24.4142 35.1642 24.75 34.75 24.75H26.5C26.0858 24.75 25.75 24.4142 25.75 24V15.75C25.75 15.3358 26.0858 15 26.5 15Z" fill="white"/>
</svg>
