<svg width="497" height="518" viewBox="0 0 497 518" fill="none" xmlns="http://www.w3.org/2000/svg">
<path fill-rule="evenodd" clip-rule="evenodd" d="M188.477 65.9412C238.109 42.6858 294.691 12.1393 343.297 34.1285C391.682 56.0177 394.006 118.246 411.536 166.853C429.014 215.315 458.625 261.875 443.57 312.167C426.149 370.361 388.971 436.561 327.227 448.49C266.978 460.129 229.551 393.291 178.128 363.448C137.296 339.752 80.1247 336.05 61.0061 293.989C41.163 250.335 59.6035 198.901 83.7207 155.755C106.656 114.723 144.887 86.3653 188.477 65.9412Z" fill="#845BF5"/>
<path d="M213.363 359.933C213.363 359.933 213.968 366.933 212.488 367.662L193.55 367.623C193.55 367.623 193.55 365.438 196.591 364.952C199.632 364.466 204.977 362.684 205.882 358.718C206.786 354.751 213.363 359.933 213.363 359.933Z" fill="#233862"/>
<path d="M267.706 357.222C267.706 357.222 268.276 366.933 266.796 367.66L247.856 367.621C247.856 367.621 247.856 365.436 250.897 364.95C253.939 364.464 259.283 362.682 260.188 358.716C261.092 354.749 267.704 357.22 267.704 357.22L267.706 357.222Z" fill="#233862"/>
<path d="M268.351 358.417C268.351 358.417 264.592 360.353 262.983 360.707C261.194 361.101 257.836 360.85 257.836 360.85C251.394 343.582 231.417 273.382 231.417 273.382C230.55 292.793 227.045 312.152 223.405 327.715C223.308 328.131 223.209 328.546 223.113 328.956V328.961C223.025 329.335 222.936 329.707 222.848 330.074C222.844 330.091 222.838 330.105 222.837 330.122C218.417 348.487 213.987 360.993 213.987 360.993C213.987 360.993 212.843 362.439 209.658 361.778C206.007 361.021 204.79 359.415 204.79 359.415C207.153 284.617 208.471 242.437 208.471 242.437C208.471 242.437 240.091 225.355 248.68 239.957C257.27 254.558 268.353 358.413 268.353 358.413L268.351 358.417Z" fill="#2A4E96"/>
<path d="M255.61 250.047C251.51 235.392 250.835 221.476 250.869 209.956C250.912 193.558 252.385 182.011 247.45 180.063C247.45 180.063 232.204 175.631 221.709 173.677C220.038 172.758 218.182 171.793 216.774 171.221C213.462 169.877 200.543 151.098 198.352 146.602C196.161 142.106 192.536 122.517 192.536 122.517L187.502 124.121C187.502 124.121 185.99 146.108 186.715 151.84C187.44 157.571 203.436 182.215 204.764 184.37C210.458 205.185 204.764 239.057 207.366 246.61C208.704 250.494 233.531 257.613 247.119 256.717C247.796 256.672 248.446 256.607 249.063 256.521C249.065 256.521 249.067 256.519 249.069 256.519C252.284 256.072 254.623 255.046 255.479 253.244C255.898 252.367 255.965 251.309 255.61 250.044V250.047Z" fill="#AEC3FF"/>
<path d="M192.536 122.517C192.536 122.517 195.381 114.253 193.301 114.012C191.22 113.773 185.999 113.797 185.356 115.193C184.711 116.59 187.504 124.121 187.504 124.121L192.538 122.517H192.536Z" fill="#FFB27D"/>
<path d="M138.382 143.108L121.589 132.954C122.335 131.722 123.509 130.907 124.805 130.589C126.102 130.271 127.519 130.445 128.753 131.191C129.839 131.847 131.252 131.498 131.908 130.413L136.452 122.899L140.384 125.276L135.839 132.791C135.51 133.333 135.434 133.96 135.574 134.532C135.714 135.104 136.073 135.621 136.617 135.949C137.849 136.693 138.662 137.868 138.982 139.164C139.301 140.459 139.126 141.878 138.38 143.11L138.382 143.108Z" fill="#ED7D2B"/>
<path d="M138.382 143.108L127.218 136.358C124.633 134.199 125.896 132.352 127.194 132.032C128.491 131.714 129.908 131.888 131.142 132.634C132.228 133.29 133.641 132.941 134.297 131.857L138.841 124.342L140.384 125.275L135.839 132.789C135.51 133.331 135.434 133.958 135.574 134.53C135.714 135.102 136.073 135.62 136.617 135.947C137.849 136.691 138.662 137.866 138.982 139.162C139.301 140.457 139.126 141.876 138.38 143.108H138.382Z" fill="#F99746"/>
<path d="M187.502 94.1557L173.912 111.286C169.189 119.098 161.02 122.844 153.193 123.158C153.193 123.158 153.191 123.158 153.189 123.158C150.521 123.265 147.897 122.975 145.459 122.31C143.446 121.76 141.128 122.844 139.855 124.947L139.589 125.387C138.801 126.688 138.139 127.781 138.139 127.781L135.277 126.05C135.277 126.05 135.944 124.946 136.737 123.633C138.133 121.319 138.057 118.494 136.526 116.782C129.985 109.466 127.532 97.3616 133.787 87.0186L142.99 67.2354L187.502 94.1538V94.1557Z" fill="#F99746"/>
<path d="M130.656 100.923C131.766 94.5034 128.661 91.0078 125.377 87.3046C122.748 84.3436 120.032 81.2835 119.447 76.7279C118.798 71.6751 121.152 66.5157 125.302 63.893C128.457 61.8984 131.944 61.8349 134.873 63.7117C139.03 66.383 140.576 71.5517 139.342 78.6589C138.458 83.7491 136.48 88.0486 136.396 88.2299L133.787 87.0205C133.86 86.8616 141.042 71.0956 133.318 66.1325C130.654 64.4183 128.113 65.5175 126.838 66.325C123.666 68.3308 121.799 72.4583 122.3 76.3634C122.771 80.0404 125.081 82.6425 127.526 85.3979C130.953 89.2581 134.835 93.6323 133.489 101.414L130.656 100.925V100.923Z" fill="#ED7D2B"/>
<path d="M163.053 120.515C168.222 116.55 172.761 117.676 177.565 118.867C181.406 119.818 185.381 120.803 189.686 119.205C194.462 117.431 197.937 112.952 198.333 108.06C198.634 104.338 197.071 101.222 194.049 99.5002C189.753 97.0588 184.457 98.0907 178.735 102.484C174.638 105.63 171.749 109.38 171.628 109.537L173.91 111.285C174.017 111.146 184.644 97.4626 192.626 101.998C195.382 103.56 195.587 106.321 195.466 107.826C195.163 111.567 192.374 115.137 188.684 116.507C185.209 117.797 181.831 116.96 178.255 116.074C173.245 114.833 167.568 113.425 161.3 118.231L163.05 120.513L163.053 120.515Z" fill="#F99746"/>
<path d="M153.189 123.158C150.521 123.265 147.897 122.975 145.459 122.31C143.446 121.76 141.128 122.844 139.855 124.947L139.589 125.387C138.589 125.903 137.834 126.555 137.477 127.381L135.279 126.052C135.279 126.052 135.946 124.947 136.739 123.635C138.135 121.321 138.058 118.496 136.527 116.784C129.986 109.467 127.534 97.3633 133.789 87.0203L142.991 67.2371L150.351 71.688C150.351 71.688 120.473 112.172 153.192 123.158H153.189Z" fill="#ED7D2B"/>
<path d="M139.944 129.524L132.613 125.09C131.618 124.488 131.295 123.181 131.897 122.186C132.499 121.192 133.805 120.869 134.8 121.471L142.131 125.905C143.126 126.507 143.449 127.813 142.847 128.808C142.245 129.802 140.939 130.126 139.944 129.524Z" fill="#F99746"/>
<path d="M142.188 104.886L142.975 103.584C146.702 105.6 147.183 105.36 148.714 102.829L156.412 90.0991C157.496 88.3064 156.948 87.783 155.613 86.7343L154.666 85.9211L155.367 84.7603C158.266 86.0819 161.715 87.2072 164.237 87.7232L153.391 105.658C151.817 108.26 151.837 108.705 155.318 111.049L154.531 112.35L142.188 104.886Z" fill="white"/>
<path d="M185.356 115.193C185.356 115.193 185.087 118.038 186.001 118.575C186.913 119.111 187.235 115.193 187.235 115.193C187.235 115.193 187.289 118.408 187.986 118.625C188.684 118.844 189.114 114.924 189.114 114.924C189.114 114.924 189.188 118.038 189.661 117.93C190.134 117.823 190.456 114.924 190.456 114.924C190.456 114.924 190.671 117.184 191.314 116.778C191.959 116.373 192.57 113.946 192.57 113.946L185.354 115.191L185.356 115.193Z" fill="#FFB27D"/>
<path d="M192.536 122.517C192.536 122.517 194.48 120.992 194.91 119.595C195.34 118.199 196.602 115.853 195.931 115.569C195.26 115.285 193.301 118.307 193.301 118.307L192.536 122.517Z" fill="#FFB27D"/>
<path d="M226.256 171.429L226.011 172.7C226.011 172.7 224.88 176.605 229.656 178.153C234.432 179.702 238.46 180.418 238.933 177.326C238.961 174.866 238.902 171.025 239.257 169.054C239.389 168.322 239.591 167.557 239.902 166.71L230.46 164.647L227.577 164.551L226.254 171.43L226.256 171.429Z" fill="#FFB27D"/>
<path d="M227.579 164.549L226.7 169.185C235.671 171.561 239.595 167.557 239.904 166.71L230.462 164.647L227.579 164.551V164.549Z" fill="#E2915A"/>
<path d="M241.287 164.787C238.505 170.442 230.862 168.086 227.641 166.778C226.734 166.411 226.179 166.125 226.179 166.125C225.203 165.548 225.08 163.719 225.418 161.465C226.083 157.003 228.545 150.87 229.727 149.455C231.506 147.327 234.309 145.273 241.526 149.348C248.745 153.425 244.853 157.541 241.285 164.787H241.287Z" fill="#FFB27D"/>
<path d="M228.942 143.108C228.942 143.108 232.428 143.804 236.943 143.183C240.608 142.68 244.289 145.4 245.429 146.48C245.454 146.254 245.45 145.936 245.328 145.585C245.328 145.585 245.809 146.179 245.73 146.8C245.779 146.864 245.798 146.903 245.779 146.909C245.779 146.909 246.495 146.976 246.876 147.295C246.876 147.295 246.583 147.166 246.418 147.331C246.401 147.348 246.379 147.361 246.355 147.372C250.759 151.264 248.97 159.448 246.807 160.852C244.205 162.54 239.737 167.187 239.737 167.187C239.737 167.187 239.896 165.492 240.808 163.619C241.721 161.747 240.018 161.269 238.116 159.768C236.215 158.267 238.715 156.259 237.258 154.206C235.802 152.154 228.646 151.113 229.063 149.972C226.762 148.32 228.867 143.374 228.94 143.112L228.942 143.108Z" fill="#233862"/>
<path d="M230.089 162.703C230.089 162.703 229.624 163.402 227.762 162.575C227.762 162.575 226.198 161.882 226.56 161.058C226.56 161.058 228.334 161.035 230.091 162.701L230.089 162.703Z" fill="white"/>
<path d="M227.992 181.817C227.992 181.817 223.685 210.393 191.475 230.238L188.469 238.97H200.094C200.094 238.97 228.944 214.777 230.878 182.637L227.99 181.817H227.992Z" fill="#ED7D2B"/>
<path d="M227.992 181.816V177.485L233.301 178.988L230.878 182.639L227.992 181.816Z" fill="#DB6516"/>
<path d="M226.255 171.428L223.149 174.085C223.149 174.085 222.289 177.794 224.384 181.818L230.647 178.238C230.647 178.238 226.947 176.451 226.255 171.43V171.428Z" fill="#9DB0F4"/>
<path d="M230.647 178.237C230.647 178.237 231.267 181.6 232.899 183.263C232.899 183.263 239.954 182.028 241.913 178.646L238.958 174.031C238.958 174.031 238.251 177.18 230.647 178.237Z" fill="#9DB0F4"/>
<path d="M272.92 252.304C272.92 252.304 272.933 258.7 272.344 259.974C271.755 261.247 269.116 265.391 267.899 266.277C266.682 267.163 268.16 261.153 267.779 260.054C267.398 258.955 266.929 262.222 266.366 262.357C265.803 262.492 265.65 259.611 265.519 258.57C265.388 257.528 267.917 254.661 268.673 252.337C269.426 250.014 272.922 252.304 272.922 252.304H272.92Z" fill="#FFB27D"/>
<path d="M247.351 180.061C247.351 180.061 253.555 181.751 257.759 191.002C262.167 200.702 273.966 222.25 274.406 225.224C274.843 228.198 273.624 255.973 273.624 255.973C273.624 255.973 268.461 256.173 266.867 253.724C266.867 253.724 265.068 229.343 264.274 228.017C263.48 226.692 243.16 202.46 244.87 196.311C246.583 190.163 247.351 180.063 247.351 180.063V180.061Z" fill="#AEC3FF"/>
<path d="M255.479 253.246C253.942 254.564 251.866 255.713 249.069 256.521C249.067 256.521 249.065 256.523 249.063 256.523C248.375 256.721 247.731 256.781 247.119 256.719C235.765 255.549 237.509 211.434 243.01 208.174C248.809 204.738 250.867 209.956 250.867 209.956C250.836 221.476 251.508 235.392 255.608 250.047C255.963 251.313 255.896 252.371 255.477 253.248L255.479 253.246Z" fill="#9DB0F4"/>
<path d="M222.846 330.074C222.921 329.73 223.009 329.358 223.111 328.961C223.024 329.335 222.934 329.707 222.846 330.074Z" fill="#233862"/>
<path d="M223.405 327.715C226.88 311.27 223.134 267.204 224.807 266.367C226.525 265.509 231.417 273.382 231.417 273.382C230.549 292.793 227.044 312.152 223.405 327.715Z" fill="#233862"/>
<path d="M138.449 361.301L137.447 354.087L141.653 350.573L142.978 360.122L138.449 361.301Z" fill="#FFB27D"/>
<path d="M152.418 367.745H135.267C135.267 367.745 134.856 365.131 135.751 363.148C136.609 361.245 137.946 360.071 138.067 358.613C139.157 359.735 140.497 360.456 142.978 360.123C143.281 360.615 144.939 363.253 145.954 363.98C147.075 364.785 152.072 364.498 152.418 367.745Z" fill="#233862"/>
<path d="M148.973 263.901C147.851 272.924 146.933 281.43 146.188 289.358C142.197 331.597 142.98 357.417 142.98 357.417C142.98 357.417 142.692 358.181 140.217 358.192C138.819 358.2 137.448 357.895 137.448 357.895C137.448 357.895 128.511 330.311 129.201 314.614C129.283 312.726 129.504 311.01 129.898 309.533C132.042 301.503 121.965 270.79 132.919 259.353C143.872 247.918 149.489 259.762 148.973 263.903V263.901Z" fill="#8680FF"/>
<path d="M148.973 263.901C147.851 272.924 146.933 281.43 146.188 289.358L129.201 314.614C129.283 312.726 129.504 311.01 129.898 309.533C132.042 301.503 121.965 270.79 132.919 259.353C143.872 247.918 149.489 259.762 148.973 263.903V263.901Z" fill="#7C75FE"/>
<path d="M162.47 177.84C162.47 177.84 162.056 175.779 161.591 174.206C161.385 173.511 162.821 168.939 163.814 168.376C164.806 167.813 167.395 170.892 166.662 173.257C166.287 174.472 165.668 178.424 165.668 178.424L162.47 177.842V177.84Z" fill="#FFB27D"/>
<path d="M162.47 177.84C162.47 177.84 161.929 176.646 161.441 176.452C160.953 176.257 160.43 174.304 160.073 173.528C160.073 173.528 160.419 173.021 161.025 173.674C161.395 174.072 162.217 175.238 162.217 175.238L162.471 177.84H162.47Z" fill="#FFB27D"/>
<path d="M91.6702 184.776C91.5656 184.993 91.4198 185.381 91.2889 185.746C91.287 185.647 91.2852 185.548 91.2833 185.451C91.2758 184.725 88.5653 180.773 87.4511 180.525C86.337 180.278 84.763 183.979 86.1557 186.026C86.8717 187.077 88.6176 190.675 88.6176 190.675L91.5057 189.184C91.5057 189.184 91.6721 187.883 92.0815 187.555C92.4909 187.228 92.4198 185.206 92.5339 184.361C92.5339 184.361 92.0553 183.977 91.6665 184.778L91.6702 184.776Z" fill="#FFB27D"/>
<path d="M109.685 359.138C109.442 356.826 109.382 350.743 109.382 350.743C109.382 350.743 115.581 348.761 115.353 350.122C114.231 356.809 114.536 360.121 114.536 360.121L112.029 361.619L109.685 359.138Z" fill="#FFB27D"/>
<path d="M143.795 263.471C143.795 263.471 119.851 329.104 115.138 357.574C115.138 357.574 114.046 358.323 112.009 358.075C109.698 357.792 109.066 356.188 109.066 356.188C109.066 356.188 104.741 322.066 113.338 310.22C119.245 302.08 110.79 266.337 124.548 263.471C138.305 260.605 143.795 263.471 143.795 263.471Z" fill="#8680FF"/>
<path d="M139.544 200.336C139.54 200.304 139.533 200.276 139.523 200.248C139.383 199.671 139.23 199.102 139.065 198.538C138.564 196.809 137.968 195.165 137.325 193.715C136.955 192.883 136.572 192.113 136.179 191.425C136.119 191.318 136.061 191.221 136.003 191.118H136.002C135.076 189.561 134.125 188.486 133.267 188.154C131.702 187.548 129.96 187.716 128.762 187.967C129.025 187.6 129.622 187.391 129.622 187.391C128.855 187.391 127.292 188.382 127.292 188.382C116.265 185.916 116.908 201.516 117.66 205.051C118.407 208.587 114.858 210.305 109.85 213.922C100.294 220.826 100.454 228.142 100.454 228.142C100.54 228.178 100.634 228.221 100.733 228.27C101.118 227.324 101.933 225.531 102.787 225.152C102.763 225.236 102.068 227.557 101.869 228.857C103.326 229.658 105.339 230.902 107.526 232.302H107.528C110.455 234.177 113.685 236.332 116.273 238.082C116.149 237.369 116.028 236.354 116.209 235.781L117.033 238.336L117.142 238.669C118.794 239.788 120.097 240.684 120.759 241.144C120.826 241.19 120.886 241.232 120.94 241.269C121.133 241.402 121.238 241.475 121.238 241.475C121.017 240.572 121.982 238.218 123.6 235.25C123.711 235.042 123.828 234.833 123.948 234.62C124.472 233.681 125.055 232.694 125.681 231.674C125.907 231.305 126.135 230.937 126.373 230.561C126.373 230.559 126.375 230.559 126.375 230.559C126.563 230.257 126.756 229.958 126.956 229.653H126.958C127.427 228.926 127.911 228.197 128.406 227.466C129.689 225.572 131.046 223.692 132.386 221.968C134.334 219.458 136.245 217.276 137.845 215.848C137.897 215.739 137.948 215.629 137.991 215.519C138.241 214.937 138.434 214.291 138.581 213.633C138.628 213.434 138.669 213.236 138.705 213.038C139.103 210.939 139.11 208.856 139.107 208.361C139.236 210.389 139.183 211.918 139.049 213.076C139.019 213.33 138.985 213.563 138.946 213.782C138.86 214.279 138.763 214.687 138.656 215.025C138.918 214.7 139.148 214.343 139.351 213.954C139.484 213.7 139.606 213.433 139.714 213.152C141.006 209.858 140.658 204.942 139.538 200.332L139.544 200.336Z" fill="#163560"/>
<path d="M137.471 216.139C137.508 216.151 134.383 218.411 131.734 218.095C129.242 217.798 127.214 214.924 127.246 214.913C128.231 214.56 128.315 213.122 127.403 207.135L127.876 207.157L135.815 207.537C135.815 207.537 136 209.989 136.334 212.277C136.615 214.197 137.002 216.001 137.473 216.141L137.471 216.139Z" fill="#FFB27D"/>
<path d="M135.813 207.537C135.813 207.537 135.998 209.989 136.333 212.277C131.999 212.797 129.132 209.2 127.874 207.157L135.813 207.537Z" fill="#ED975D"/>
<path d="M126.954 206.436C126.954 206.436 124.161 203.198 123.163 200.224C122.451 198.1 122.359 189.849 130.657 189.806C130.657 189.806 133.052 189.688 135.493 190.857C137.435 191.786 140.363 193.978 138.566 201.458L138.181 203.951L126.954 206.436Z" fill="#163560"/>
<path d="M149.973 262.211C149.973 262.211 139.643 268.35 126.672 265.195C126.518 265.157 115.992 263.477 115.992 263.477C116.174 262.981 117.534 254.85 117.712 254.395C120.013 248.457 124.219 216.229 127.732 214.64C128.629 215.618 131.194 216.285 133.388 216.091C135.916 215.868 136.761 214.777 136.551 213.601C139.348 214.922 141.496 216.152 141.496 216.152C144.051 219.983 149.973 262.211 149.973 262.211Z" fill="white"/>
<path d="M137.576 209.487C137.576 209.487 127.392 211.173 126.438 204.815C125.485 198.456 123.529 194.392 129.992 193.046C136.454 191.7 138.084 193.936 138.918 195.981C139.752 198.026 140.2 208.883 137.576 209.487Z" fill="#FFB27D"/>
<path d="M134.618 192.199C134.618 192.199 132.932 200.076 128.807 201.817C124.681 203.559 122.649 202.686 122.649 202.686C122.649 202.686 125.55 199.583 125.556 194.917C125.556 194.917 131.983 188.961 134.618 192.199Z" fill="#163560"/>
<path d="M134.016 192.907C134.016 192.907 136.351 194.263 137.101 195.807C137.85 197.351 138.576 200.65 139.531 200.392C139.531 200.392 140.882 195.009 138.09 192.491C135.127 189.821 134.016 192.907 134.016 192.907Z" fill="#163560"/>
<path d="M165.739 177.988C165.324 177.842 164.715 177.497 163.918 177.426C163.21 177.362 162.318 177.592 162.318 177.592C162.318 177.592 159.445 195.453 159.232 196.401C159.019 197.347 146.907 210.991 143.642 210.937C140.694 210.889 137.2 213.164 136.551 213.601C136.551 213.601 143.417 228.122 143.761 230.849C144.133 233.818 147.689 279.521 147.689 279.521C147.689 279.521 147.478 281.647 151.45 280.505C155.422 279.361 156.417 278.415 156.417 278.415C156.417 278.415 152.768 242.434 152.001 231.244C151.899 229.741 151.654 228.352 151.304 227.07C150.968 225.832 151.233 224.51 151.988 223.475C157.011 216.581 164.943 205.41 165.384 203.035C166.033 199.547 165.741 177.988 165.741 177.988H165.739Z" fill="#2B478B"/>
<path d="M123.974 367.745H106.823C106.823 367.745 106.412 365.131 107.307 363.148C108.165 361.245 109.502 360.071 109.624 358.613C110.713 359.735 112.054 360.456 114.534 360.123C114.837 360.615 116.495 363.253 117.51 363.98C118.632 364.785 123.629 364.498 123.974 367.745Z" fill="#233862"/>
<path d="M135.757 232.259C135.179 228.701 127.799 214.42 127.799 214.42C127.799 214.42 123.133 213.025 120.064 214.137C116.992 215.25 101.107 206.281 100.596 205.454C100.088 204.628 91.5788 188.772 91.5788 188.772C91.5788 188.772 90.8741 188.363 89.7431 188.954C88.6252 189.537 88.6196 190.675 88.6196 190.675C88.6196 190.675 95.1866 210.638 96.9345 213.726C97.9888 215.588 106.846 222.073 113.714 226.927C115.024 227.855 115.714 229.432 115.499 231.025C114.575 237.852 114.34 241.695 113.278 253.41C112.398 263.127 112.059 281.94 112.059 281.94C112.059 281.94 119.744 284.6 125.047 284.952C130.351 285.305 131.508 279.714 131.508 279.714C131.508 279.714 136.353 235.917 135.759 232.261L135.757 232.259Z" fill="#2B478B"/>
<path d="M134.239 206.344C134.239 206.344 135.476 207.071 136.936 206.851C137.936 206.701 138.164 205.514 138.164 205.514C138.164 205.514 137.469 205.295 136.359 205.518C135.248 205.74 134.239 206.344 134.239 206.344Z" fill="white"/>
<path d="M332.63 205.011C332.63 205.011 335.793 210.225 329.845 213.507C329.845 213.507 334.417 215.156 336.01 214.534C336.01 214.534 335.615 214.945 335.314 215.094C335.314 215.094 339.612 216.459 341.754 215.713C343.896 214.967 348.508 194.161 335.825 193.064C335.825 193.064 325.82 189.482 323.706 200.646C321.59 211.812 317.737 210.728 317.737 210.728C317.737 210.728 318.671 211.516 319.189 211.662C319.189 211.662 320.021 211.608 320.277 211.266C320.277 211.266 319.958 211.83 319.709 211.969C319.709 211.969 323.765 213.502 326.25 212.638C328.734 211.774 332.589 207.426 332.63 205.011Z" fill="#163560"/>
<path d="M319.898 369.264H336.079C336.079 369.264 336.468 366.799 335.621 364.927C334.812 363.133 333.552 362.024 333.436 360.648C332.408 361.706 331.142 362.389 328.803 362.073C328.517 362.538 326.953 365.025 325.996 365.712C324.938 366.471 320.223 366.202 319.898 369.264Z" fill="#233862"/>
<path d="M333.269 363.084C333.269 363.084 331.888 363.531 330.448 363.66C327.898 363.886 327.528 363.129 327.528 363.129C327.528 363.129 324.995 340.583 316.796 297.484C315.613 291.259 315.148 287.813 314.72 282.28C314.592 280.624 314.467 278.781 314.331 276.62C313.959 270.812 314.841 261.035 319.2 258.467C321.182 257.297 323.881 257.618 327.513 260.476C327.797 260.701 328.093 260.944 328.39 261.202C339.014 270.391 334.658 296.784 335.088 309.193C335.161 311.249 335.363 312.922 335.787 314.07C336.335 315.553 337.512 317.607 337.78 319.544C340.01 335.637 333.273 363.086 333.273 363.086L333.269 363.084Z" fill="#2B478B"/>
<path d="M335.084 309.191L314.718 282.28C314.591 280.624 314.466 278.781 314.329 276.62C313.957 270.812 314.839 261.035 319.199 258.467L327.512 260.476C327.796 260.701 328.091 260.944 328.388 261.202C339.012 270.391 334.656 296.784 335.086 309.193L335.084 309.191Z" fill="#233862"/>
<path d="M392.651 335.211L385.915 320.497C385.915 320.497 383.511 321.17 382.162 322.718C380.866 324.202 379.928 323.938 376.978 321.89C378.088 323.606 378.24 324.617 378.926 326.873C379.468 326.941 382.552 329.926 385.713 330.748C386.973 331.076 389.729 336.188 392.651 335.209V335.211Z" fill="#233862"/>
<path d="M322.04 264.923C322.04 264.923 336.541 315.33 341.853 318.575C347.166 321.82 375.099 326.283 380.777 328.716C380.777 328.716 381.468 327.726 381.063 325.606C380.973 325.135 380.171 323.443 380.171 323.443C380.171 323.443 362.825 310.403 351.407 309.087C348.574 308.759 357.176 265.492 338.03 263.764C320.541 262.187 322.04 264.925 322.04 264.925V264.923Z" fill="#2B478B"/>
<path d="M301.354 182.224C301.354 182.224 301.745 180.28 302.184 178.795C302.378 178.139 301.023 173.825 300.087 173.294C299.15 172.763 296.707 175.668 297.398 177.898C297.754 179.044 298.337 182.772 298.337 182.772L301.356 182.224H301.354Z" fill="#FFB27D"/>
<path d="M301.354 182.224C301.354 182.224 301.864 181.097 302.324 180.913C302.784 180.73 303.278 178.887 303.616 178.156C303.616 178.156 303.289 177.678 302.719 178.293C302.371 178.668 301.593 179.768 301.593 179.768L301.354 182.224Z" fill="#FFB27D"/>
<path d="M368.153 188.765C368.252 188.97 368.39 189.335 368.512 189.679C368.514 189.585 368.516 189.492 368.516 189.4C368.521 188.716 371.08 184.987 372.131 184.753C373.181 184.519 374.668 188.011 373.353 189.942C372.679 190.935 371.03 194.328 371.03 194.328L368.304 192.92C368.304 192.92 368.147 191.692 367.76 191.384C367.373 191.073 367.443 189.167 367.332 188.368C367.332 188.368 367.785 188.006 368.151 188.761L368.153 188.765Z" fill="#FFB27D"/>
<path d="M324.94 218.356C324.904 218.366 327.852 220.5 330.353 220.199C332.705 219.919 334.617 217.208 334.587 217.197C333.658 216.865 333.578 215.509 334.439 209.86L333.995 209.881L326.504 210.24C326.504 210.24 326.328 212.554 326.013 214.711C325.747 216.522 325.383 218.224 324.94 218.356Z" fill="#FFB27D"/>
<path d="M326.504 210.24C326.504 210.24 326.328 212.554 326.012 214.711C330.101 215.203 332.806 211.808 333.993 209.881L326.502 210.24H326.504Z" fill="#ED975D"/>
<path d="M334.864 209.202C334.864 209.202 337.5 206.148 338.44 203.342C339.111 201.338 339.199 193.554 331.368 193.513C331.368 193.513 329.108 193.401 326.805 194.503C324.973 195.38 322.21 197.45 323.906 204.506L324.268 206.858L334.862 209.202H334.864Z" fill="#163560"/>
<path d="M315.546 262.981C315.546 262.981 322.893 267.617 335.129 264.639C335.273 264.604 342.087 263.518 342.087 263.518C341.917 263.05 334.757 251.221 334.589 250.791C332.419 245.189 337.445 218.442 334.131 216.941C333.284 217.863 330.865 218.495 328.796 218.31C326.413 218.098 325.613 217.068 325.811 215.962C323.173 217.209 321.145 218.369 321.145 218.369C318.733 221.983 315.548 262.981 315.548 262.981H315.546Z" fill="#FFB27D"/>
<path d="M324.841 212.081C324.841 212.081 334.449 213.674 335.348 207.673C336.247 201.674 338.092 197.838 331.996 196.569C325.899 195.3 324.362 197.408 323.575 199.34C322.788 201.269 322.366 211.513 324.841 212.081Z" fill="#FFB27D"/>
<path d="M327.631 195.769C327.631 195.769 329.222 203.202 333.114 204.845C337.006 206.488 338.924 205.664 338.924 205.664C338.924 205.664 336.185 202.736 336.182 198.334C336.182 198.334 330.117 192.715 327.629 195.769H327.631Z" fill="#163560"/>
<path d="M328.2 196.438C328.2 196.438 325.996 197.717 325.289 199.173C324.581 200.629 323.898 203.744 322.997 203.499C322.997 203.499 321.722 198.418 324.358 196.044C327.153 193.526 328.201 196.436 328.201 196.436L328.2 196.438Z" fill="#163560"/>
<path d="M370.407 194.332C370.407 194.332 364.21 213.167 362.562 216.079C361.569 217.837 350.405 224.787 343.926 229.367C343.855 229.415 343.773 229.516 343.678 229.664C343.678 229.668 343.674 229.669 343.67 229.673C342.053 232.174 337.027 247.653 338.229 250.43C343.281 262.106 346.745 266.623 348.005 269.898C348.635 271.531 347.794 273.362 346.145 273.948C344.068 274.687 341.01 275.618 337.402 276.237C336.714 276.356 336.006 276.463 335.281 276.554C325.323 277.818 318.58 275.481 315.157 273.754C313.538 272.937 312.561 271.238 312.662 269.428C312.867 265.735 314.714 262.078 315.548 253.195C316.18 246.454 310.362 236.197 310.609 232.61C310.706 231.191 311.822 229.494 312.426 228.393C312.426 228.393 312.426 228.393 312.426 228.389C313.495 226.441 314.082 224.682 313.37 223.706C308.631 217.203 298.399 208.234 297.98 205.994C297.369 202.702 297.645 182.362 297.645 182.362C298.036 182.226 298.612 181.899 299.363 181.831C300.032 181.771 300.872 181.988 300.872 181.988C300.872 181.988 303.582 198.842 303.784 199.734C303.986 200.626 315.411 213.5 318.492 213.447C321.274 213.401 325.197 215.548 325.807 215.962C325.807 215.962 323.309 220.386 322.687 226.363C322.253 230.542 325.044 228.684 326.799 225.822C329.173 221.947 333.953 216.429 333.953 216.429C333.953 216.429 337.842 215.418 340.739 216.468C343.637 217.517 358.625 209.053 359.105 208.275C359.588 207.495 367.615 192.537 367.615 192.537C367.615 192.537 368.28 192.152 369.347 192.707C370.402 193.257 370.407 194.332 370.407 194.332Z" fill="#8680FF"/>
<path d="M327.631 208.823C327.631 208.823 327.22 209.651 326.667 209.668C326.113 209.683 324.709 209.55 324.614 209.406C324.519 209.262 324.285 208.396 324.285 208.396C324.285 208.396 326.607 208.303 327.631 208.823Z" fill="white"/>
<path d="M346.143 273.948C344.066 274.687 341.008 275.618 337.4 276.237C333.965 271.5 328.149 265.538 329.646 254.577C331.192 243.245 342.334 231.318 343.67 229.673C342.053 232.174 337.027 247.653 338.228 250.43C343.281 262.106 346.745 266.623 348.005 269.898C348.635 271.531 347.794 273.362 346.145 273.948H346.143Z" fill="#7C75FE"/>
<path d="M312.426 228.389C313.495 226.441 314.082 224.682 313.37 223.706C308.631 217.203 298.399 208.234 297.98 205.994C298.995 208.428 311.387 215.698 314.871 218.824C318.317 221.91 312.566 228.238 312.424 228.389H312.426Z" fill="#7C75FE"/>
<path d="M104.417 138.693C104.417 138.693 106.739 141.874 106.49 145.503C106.305 148.196 103.905 150.92 103.742 151.028L107.532 153.049C107.532 153.049 110.341 148.06 109.395 143.891C109.106 142.614 107.762 140.571 106.774 139.661C105.687 138.657 104.417 138.693 104.417 138.693Z" fill="#6BB7BF"/>
<path d="M96.6707 139.031L94.2705 133.726C94.2705 133.726 105.47 134.105 109.18 143.23C109.18 143.23 101.344 137.642 96.6707 139.031Z" fill="#86D1CD"/>
<path d="M54.3675 273.988C54.3675 273.988 51.6981 271.973 51.0102 268.961C50.498 266.725 51.7822 263.921 51.8869 263.794L48.3108 263.082C48.3108 263.082 47.2509 267.828 49.0455 270.984C49.5951 271.95 51.1896 273.283 52.2159 273.78C53.3468 274.328 54.3712 273.988 54.3712 273.988H54.3675Z" fill="#6BB7BF"/>
<path d="M60.5832 271.812L63.8377 275.536C63.8377 275.536 54.6405 277.979 49.3821 271.472C49.3821 271.472 57.1249 274.091 60.5832 271.814V271.812Z" fill="#86D1CD"/>
<path d="M463.706 291.324C463.706 291.324 463.472 287.827 470.039 286.133C472.982 285.374 479.536 286.724 475.382 293.171C471.06 299.878 467.209 297.456 467.209 297.456C467.209 297.456 476.221 290.401 472.615 287.176C468.636 283.617 467.106 290.67 467.106 290.67C467.106 290.67 465.503 290.586 463.71 291.322L463.706 291.324Z" fill="#F1A34F"/>
<path d="M466.037 297.859C466.037 297.859 463.581 296.528 464.555 293.579L468.084 294.192C468.084 294.192 466.727 297.386 470.047 297.773C470.047 297.773 466.852 298.532 466.037 297.861V297.859Z" fill="#DB7714"/>
<path d="M235.75 110.247C235.75 110.247 239.419 104.962 245.046 108.705L248.472 105.428C248.472 105.428 245.27 102.998 237.886 107.357C233.054 110.21 235.75 110.247 235.75 110.247Z" fill="#5685D8"/>
<path d="M232.129 115.427C232.129 115.427 231.403 109.361 241.556 105.577C241.556 105.577 237.886 107.355 236.754 113.402L232.129 115.427Z" fill="#739AF0"/>
<path d="M272.919 83.2575C272.919 83.2575 275.92 81.362 276.236 79.072C276.236 79.072 279.157 79.229 279.789 80.1768C279.789 80.1768 278.447 83.966 276.867 84.6782C276.867 84.6782 273.314 84.9156 272.919 83.2575Z" fill="#F99746"/>
<path d="M176.362 299.473C176.362 299.473 173.162 297.452 172.824 295.009C172.824 295.009 169.708 295.177 169.033 296.188C169.033 296.188 170.465 300.231 172.149 300.989C172.149 300.989 175.94 301.241 176.361 299.473H176.362Z" fill="#F99746"/>
<path d="M307.749 142.962C307.749 142.962 310.964 140.932 311.303 138.478C311.303 138.478 314.434 138.648 315.11 139.663C315.11 139.663 313.673 143.723 311.979 144.486C311.979 144.486 308.171 144.74 307.749 142.962Z" fill="#86D1CD"/>
<path d="M370.317 236.051C370.317 236.051 368.459 233.795 367.459 233.479C366.459 233.163 364.526 231.666 364.274 232.283C364.022 232.9 365.573 233.851 365.493 234.556C365.41 235.261 360.558 236.394 360.588 237.139C360.617 237.885 361.73 239.689 363.58 239.482C365.431 239.274 370.127 238.16 371.091 238.642C372.056 239.125 370.319 236.051 370.319 236.051H370.317Z" fill="#FFB27D"/>
<path d="M420.375 225.08C417.634 228.761 414.424 231.67 411.129 233.962C400.651 241.252 389.284 242.338 389.284 242.338C386.56 241.467 378.191 240.555 373.247 239.758H373.245C371.089 239.413 369.585 239.085 369.484 238.798L369.609 234.491C369.609 234.491 387.758 233.532 390.764 232.137C395.503 228.055 399.69 222.753 402.418 218.611C404.723 215.113 407.3 212.53 411.553 211.014C417.701 208.821 428.884 213.651 420.375 225.082V225.08Z" fill="#AEC3FF"/>
<path d="M412.052 231.251L411.127 233.962C400.649 241.252 389.282 242.338 389.282 242.338C387.093 242.338 378.189 240.555 373.245 239.758C373.441 239.775 386.708 240.811 389.641 240.508C392.594 240.203 406.347 228.283 406.347 228.283L412.052 231.251Z" fill="#9DB0F4"/>
<path d="M400.204 367.745H420.26C421.698 366.771 419.874 357.243 419.874 357.243C419.874 357.243 414.4 355.166 413.454 359.389C412.506 363.61 406.482 364.952 403.294 365.466C401.113 365.821 400.423 367.019 400.204 367.743V367.745Z" fill="#233862"/>
<path d="M429.951 367.745H450.009C451.447 366.771 449.622 357.243 449.622 357.243C449.622 357.243 444.149 355.166 443.203 359.389C442.255 363.61 436.23 364.952 433.043 365.466C430.862 365.821 430.172 367.019 429.953 367.743L429.951 367.745Z" fill="#233862"/>
<path d="M405.601 270.545C405.601 270.545 406.502 281.793 407.562 295.313C409.001 313.68 412.886 359.217 412.886 359.217C412.886 359.217 415.432 361.389 421.074 360.2C421.074 360.2 425.874 344.49 427.31 326.561C427.332 326.268 427.354 325.971 427.377 325.675C428.712 307.423 430.788 268.988 430.788 268.988L405.599 270.545H405.601Z" fill="#2B478B"/>
<path d="M405.292 266.656C405.292 266.656 406.502 281.791 407.562 295.311L427.31 326.559C427.332 326.266 427.354 325.969 427.377 325.673C428.712 307.421 430.788 268.986 430.788 268.986L405.292 266.656Z" fill="#233862"/>
<path d="M411.048 266.656C411.048 266.656 425.371 302.308 429.949 315.824C433.211 325.451 442.408 359.22 442.408 359.22C442.408 359.22 446.409 360.437 449.77 358.084C449.77 358.084 453.192 323.581 446.28 313.853C442.612 308.692 445.367 260.2 430.499 259.783C415.63 259.368 411.046 266.655 411.046 266.655L411.048 266.656Z" fill="#2B478B"/>
<path d="M417.447 214.1C419.634 215.251 421.767 215.324 423.618 214.93C425.31 214.575 426.764 213.827 427.798 213.165C428.859 212.487 429.484 211.894 429.484 211.894C429.484 211.894 429.409 211.788 429.286 211.576C428.639 210.472 426.682 206.499 427.553 200.117C427.564 200.033 426.932 200.153 425.977 200.377C423.135 201.05 417.421 202.671 417.169 202.742H417.159C417.159 202.742 417.09 204.084 416.855 206.49C416.836 206.701 416.813 206.924 416.791 207.154C416.761 207.436 416.733 207.735 416.698 208.043C416.432 210.544 417.449 214.096 417.449 214.096L417.447 214.1Z" fill="#FFB27D"/>
<path d="M416.853 206.494C421.096 207.466 427.428 201.201 427.428 201.201C426.964 200.857 426.478 200.585 425.977 200.379C423.136 201.052 417.421 202.673 417.169 202.744H417.159C417.159 202.744 417.09 204.086 416.855 206.492L416.853 206.494Z" fill="#ED975D"/>
<path d="M415.411 202.405C415.411 202.405 417.156 203.032 419.38 203.331C422.633 203.77 426.91 203.51 428.254 199.575C430.518 192.95 433.408 188.98 426.747 186.275C423.182 184.826 420.902 184.749 419.352 185.303C418.006 185.779 417.214 186.733 416.612 187.675C415.318 189.703 412.716 201.246 415.411 202.405Z" fill="#FFB27D"/>
<path d="M411.372 188.198C415.228 190.971 420.563 188.245 422.221 188.983C423.878 189.72 424.175 192.498 424.205 193.38C424.235 194.264 424.351 195.008 426.599 194.479C426.968 194.393 427.233 194.418 427.416 194.528C428.349 195.081 427.157 197.766 426.798 198.345C426.798 198.345 426.28 200.267 427.429 201.203C427.568 201.315 429.824 202.301 435.262 193.98C436.116 192.674 436.933 189.731 435.613 186.899C434.296 184.065 428.785 181.329 424.111 179.876C422.36 179.332 421.062 179.353 420.046 179.725C418.352 180.343 417.447 181.945 416.552 183.553C415.049 186.254 411.372 188.198 411.372 188.198Z" fill="#A9453D"/>
<path d="M436.182 269.15C436.182 269.15 434.316 269.554 431.955 269.954C429.646 270.341 426.863 270.722 424.898 270.707C414.841 270.629 406.425 267.668 406.425 267.668C404.535 267.668 403.67 264.74 403.362 260.654C403.152 257.887 403.197 254.588 403.347 251.309C403.395 250.245 403.457 249.182 403.522 248.141C403.655 246.075 403.81 244.092 403.95 242.338C404.083 240.691 404.203 239.25 404.274 238.13C404.274 238.128 404.005 230.301 404.111 223.417C404.186 218.474 406.96 213.975 407.654 213.242C409.667 211.113 415.499 209.767 416.668 209.58C416.757 209.567 416.804 209.559 416.804 209.559C421.601 212.253 428.059 208.613 428.059 208.613C428.205 208.638 428.349 208.673 428.491 208.703C428.966 208.602 433.813 209.32 434.942 209.935C437.731 211.455 439.352 228.32 439.352 228.32C439.817 239.777 439.232 258.123 440.139 265.125C440.438 267.432 438.206 268.681 436.183 269.146L436.182 269.15Z" fill="#AEC3FF"/>
<path d="M428.458 208.711C428.458 208.711 421.311 216.081 416.202 214.571C416.202 214.571 415.522 213.576 417.823 213.257C420.124 212.937 422.608 213.068 428.458 208.711Z" fill="#9DB0F4"/>
<path d="M415.361 198.128C415.361 198.128 415.221 198.986 417.215 199.67C417.215 199.67 418.888 200.244 419.195 199.366C419.195 199.366 417.866 198.1 415.361 198.128Z" fill="white"/>
<path d="M432.376 236.595C432.376 236.595 421.997 253.954 416.109 257.01C412.127 259.076 406.553 260.164 403.36 260.654C403.15 257.887 403.195 254.588 403.345 251.309C407.562 250.797 413.987 249.982 413.987 249.982L432.376 236.595Z" fill="#9DB0F4"/>
<path d="M418.705 227.873L413.174 247.842C413.174 247.842 406.665 248.253 403.522 248.139C403.655 246.073 403.659 246.004 403.799 244.251C403.799 244.251 411.273 240.355 418.705 227.873Z" fill="#9DB0F4"/>
<path d="M385.395 249.32C385.395 249.32 383.537 247.064 382.537 246.748C381.537 246.432 379.602 244.935 379.352 245.552C379.099 246.168 380.651 247.12 380.571 247.825C380.488 248.529 375.636 249.662 375.665 250.408C375.695 251.154 376.808 252.958 378.658 252.75C380.509 252.543 385.205 251.429 386.169 251.911C387.134 252.391 385.397 249.32 385.397 249.32H385.395Z" fill="#FFB27D"/>
<path d="M439.928 221.616C439.928 221.616 440.255 232.193 416.148 253.412L411.306 244.74C410.415 244.221 426.88 208.808 431.611 209.092C440.78 209.64 439.926 221.616 439.926 221.616H439.928Z" fill="#AEC3FF"/>
<path d="M414.191 243.708C414.191 243.708 386.777 246.843 385.762 247.387C384.747 247.931 382.569 250.053 383.294 252.713C383.294 252.713 397.486 254.496 405.293 254.465C412.028 254.437 416.385 253.356 416.385 253.356L414.191 243.708Z" fill="#AEC3FF"/>
</svg>
