<svg width="579" height="617" viewBox="0 0 579 617" fill="none" xmlns="http://www.w3.org/2000/svg">
<path fill-rule="evenodd" clip-rule="evenodd" d="M246.551 536.675C314.568 543.168 393.825 555.558 441.418 506.59C488.794 457.846 465.079 379.892 464.962 311.956C464.845 244.223 479.75 173.402 440.748 117.992C395.618 53.875 323.944 -11.2808 246.551 1.65515C171.032 14.2777 155.588 113.666 108.032 173.604C70.2707 221.196 4.87437 251.4 0.349027 311.956C-4.34777 374.807 39.1049 430.112 85.6857 472.629C129.984 513.061 186.814 530.972 246.551 536.675Z" fill="#D7ECFF"/>
<path d="M284.44 312.768V186.323C284.44 185.949 284.137 185.647 283.764 185.647H95.6763C95.3028 185.647 95 185.949 95 186.323V312.768C95 313.142 95.3028 313.444 95.6763 313.444H283.764C284.137 313.444 284.44 313.142 284.44 312.768Z" fill="#9575FF"/>
<path d="M143.454 276.838H126.419V295.148H143.454V276.838Z" fill="white"/>
<path d="M170.347 257.639H153.312V295.148H170.347V257.639Z" fill="#72C593"/>
<path d="M197.236 264.039H180.201V295.148H197.236V264.039Z" fill="white"/>
<path d="M224.128 244.839H207.093V295.148H224.128V244.839Z" fill="#72C593"/>
<path d="M251.018 225.64H233.983V295.148H251.018V225.64Z" fill="white"/>
<path d="M127.638 257.849L126.69 256.567L169.575 224.976L188.383 240.266L242.711 201.374L243.639 202.668L188.32 242.272L169.527 226.992L127.638 257.849Z" fill="white"/>
<path d="M246.497 198.985L245.221 202.445L243.945 205.905L241.585 203.07L239.227 200.235L242.861 199.61L246.497 198.985Z" fill="white"/>
<path d="M471.408 578.472H482.825V481.675H471.408V578.472Z" fill="#1C1B5F"/>
<path d="M478.738 577.059L475.086 577.131L475.633 605.091L479.284 605.019L478.738 577.059Z" fill="#1C1B5F"/>
<path d="M482.796 611.047C483.991 608.164 482.622 604.859 479.737 603.664C476.853 602.47 473.546 603.839 472.351 606.722C471.157 609.605 472.526 612.911 475.411 614.105C478.295 615.299 481.602 613.93 482.796 611.047Z" fill="#1C1B5F"/>
<path d="M459.37 611.88C461.012 609.226 460.19 605.744 457.534 604.103C454.878 602.462 451.395 603.284 449.753 605.938C448.112 608.593 448.934 612.075 451.59 613.716C454.246 615.356 457.729 614.535 459.37 611.88Z" fill="#1C1B5F"/>
<path d="M452.504 605.707H456.159V597.942L476.48 577.633L473.896 575.05L452.504 596.431V605.707Z" fill="#1C1B5F"/>
<path d="M505.328 608.883C505.328 612.001 502.798 614.533 499.675 614.533C496.552 614.533 494.026 612.005 494.026 608.883C494.026 605.761 496.555 603.236 499.675 603.236C502.795 603.236 505.328 605.764 505.328 608.883Z" fill="#1C1B5F"/>
<path d="M498.08 605.707H501.733V596.431L480.34 575.05L477.756 577.633L498.08 597.942V605.707Z" fill="#1C1B5F"/>
<path d="M458.912 339.863V483.955H532.514C541.376 483.955 548.544 473.729 548.544 461.13V339.86C548.544 317.347 535.746 299.098 519.961 299.098H487.499C471.711 299.098 458.916 317.347 458.916 339.86L458.912 339.863Z" fill="#1C1B5F"/>
<path d="M484.35 457.479V483.955H533.5C546.142 483.955 556.37 473.729 556.37 461.13V457.479H484.35Z" fill="#1C1B5F"/>
<path d="M396.517 483.955H517.077V457.479H396.517V483.955Z" fill="#1C1B5F"/>
<path d="M392.227 475.598C408.133 450.391 459.222 555.934 466.875 585.386C474.531 614.837 454.922 589.579 428.166 549.445C401.414 509.309 385.968 485.518 392.224 475.598H392.227Z" fill="#E0BD96"/>
<path d="M361.927 463.2C391.535 459.692 341.629 565.8 323.551 590.28C305.472 614.76 312.768 583.635 327.133 537.593C341.501 491.554 350.277 464.58 361.927 463.197V463.2Z" fill="#E0BD96"/>
<path d="M336.244 574.837L324.291 597.066L308.863 591.23L317.339 570.392L336.244 574.837Z" fill="#86583D"/>
<path d="M456.003 558.807L467.223 581.415L453.534 590.618L441.437 571.645L456.003 558.807Z" fill="#86583D"/>
<path d="M497.382 431.182C502.205 440.91 492.995 456.551 482.927 460.636C474.917 463.882 462.166 469.354 447.361 471.873C410.694 478.113 377.195 485.849 367.258 473.981C357.324 462.112 373.204 441.433 408.069 431.102C439.58 421.765 477.389 405.401 486.258 412.783C490.749 416.52 493.161 422.664 497.382 431.178V431.182Z" fill="#E0BD96"/>
<path d="M525.55 431.182C530.374 440.91 521.164 456.551 511.096 460.636C503.086 463.882 490.335 469.354 475.53 471.873C438.863 478.113 405.364 485.849 395.43 473.981C385.496 462.112 401.376 441.433 436.24 431.102C467.752 421.765 505.561 405.401 514.429 412.783C518.921 416.52 521.333 422.664 525.553 431.178L525.55 431.182Z" fill="#E0BD96"/>
<path d="M490.963 278.27L471.102 289.443L467.838 276.34C467.838 276.34 467.178 276.908 466.001 277.549C463.41 279.019 458.37 280.728 451.821 277.689C450.462 277.036 449.348 275.872 448.436 274.258C446.95 271.564 446.005 267.846 445.431 263.758C445.38 263.394 445.329 263.034 445.329 262.664C444.024 252.243 445.112 240.429 445.112 240.429C445.051 240.384 444.994 240.34 444.943 240.346L445.061 240.066C445.061 240.066 455.502 236.226 458.75 241.312C461.12 245.043 458.938 248.672 460.913 250.716C464.135 254.115 467.484 241.51 470.189 241.976C472.843 242.448 475.549 245.18 472.85 251.153C469.015 259.552 486.207 260.939 486.207 260.939L486.465 260.904C486.338 261.133 486.248 261.251 486.248 261.251L490.96 278.266L490.963 278.27Z" fill="#86583D"/>
<path d="M459.563 414.371C459.563 414.371 376.273 431.459 358.76 457.855C341.246 484.252 310.392 578.45 310.392 578.45L333.743 586.785C333.743 586.785 384.615 501.758 389.34 487.865C390.861 483.391 513.319 436.182 513.319 436.182C513.319 436.182 483.667 409.878 482.184 410.988C480.701 412.1 459.563 414.371 459.563 414.371Z" fill="#1949A0"/>
<path d="M525.92 415.806C525.92 415.806 540.004 461.746 507.019 470.266C474.03 478.786 425.107 485.457 425.847 487.68C426.587 489.902 466.246 571.409 466.246 571.409L442.895 584.378C442.895 584.378 372.844 490.645 383.961 460.636C395.082 430.627 465.873 415.436 465.873 415.436L525.917 415.806H525.92Z" fill="#1949A0"/>
<path d="M357.413 394.339C358.096 396.3 367.915 392.362 370.892 391.53C371.341 391.402 371.644 391.345 371.727 391.393C371.813 391.444 383.744 388.472 382.966 384.636C381.725 378.513 371.172 381.929 367.615 383.223C364.617 384.314 361.8 386.648 359.867 388.957C358.064 391.112 357.031 393.249 357.41 394.339H357.413Z" fill="#86583D"/>
<path d="M474.464 294.341C477.724 296.423 479.189 300.419 478.681 304.251C476.397 321.464 467.8 379.027 454.97 378.287C439.887 377.417 450.558 326.799 455.505 312.529C459.627 300.639 466.585 289.309 474.464 294.341Z" fill="#86583D"/>
<path d="M376.975 383.086L376.621 381.562L386.845 378.915C404.882 372.825 437.367 366.227 448.663 364.018C451.853 363.393 455.253 364.151 457.576 366.428C461.311 370.089 458.775 373.552 457.397 376.629C456.182 379.339 416.87 386.284 392.795 387.825L378.241 388.529L378.053 387.745C375.571 387.359 374.196 386.673 374.436 385.589C374.605 384.811 375.52 383.966 376.975 383.086Z" fill="#86583D"/>
<path d="M481.007 322.261C478.117 340.022 471.111 367.876 463.261 379.524C463.171 379.703 463.037 379.859 462.926 380.034C454.918 391.393 391.541 390.905 391.541 390.905L389.917 382.235L388.785 376.122C388.785 376.122 442.292 362.229 443.98 360.94C445.648 359.63 446.315 338.6 452.765 312.638C456.013 299.656 464.986 288.926 469.5 286.614C474.416 284.102 476.959 290.629 480.474 294.899C484.921 300.3 483.23 308.613 481.007 322.264V322.261Z" fill="#6F87F7"/>
<path d="M527.774 385.127C527.617 383.482 527.416 381.792 527.196 380.124C526.753 363.409 522.28 323.218 520.768 311.123C520.433 308.391 519.412 302.144 517.878 297.029V297.007C517.744 296.519 517.588 296.028 517.435 295.585C516.902 294.006 516.321 292.606 515.699 291.538C510.451 282.559 499.822 277.444 490.035 273.866C486.609 277.179 482.742 280.001 478.582 282.269C476.493 283.404 474.311 284.379 472.087 285.224L470.043 286.025C463.698 290.017 455.866 310.859 455.253 332.507C454.778 349.337 454.296 365.517 455.186 381.744C455.209 382.254 455.253 382.79 455.276 383.3C455.63 388.992 456.143 394.681 456.855 400.439C456.855 400.484 456.877 400.529 456.877 400.573C457.343 404.33 457.923 408.108 458.59 411.909C458.746 412.777 458.944 413.733 459.57 414.377C460.192 415.022 461.126 415.245 462.016 415.423C477.849 418.669 494.195 419.514 510.273 417.914C512.075 417.735 513.852 417.537 515.632 417.292C517.412 417.046 522.992 416.625 524.772 416.335C526.261 416.09 527.018 412.668 527.285 411.466C527.687 409.62 527.774 407.665 527.885 405.841C528.019 403.239 528.019 400.551 528.064 397.994C528.131 393.705 528.176 389.391 527.774 385.124V385.127Z" fill="#4B5BD0"/>
<path d="M405.625 394.508C406.139 396.52 416.258 393.433 419.295 392.856C419.754 392.77 420.06 392.735 420.14 392.789C420.22 392.847 432.361 390.901 431.915 387.011C431.2 380.806 420.395 383.312 416.739 384.298C413.661 385.13 410.653 387.215 408.531 389.352C406.553 391.345 405.341 393.385 405.625 394.505V394.508Z" fill="#86583D"/>
<path d="M506.748 288.709C510.362 290.087 512.608 293.703 512.885 297.558C514.142 314.876 517.396 372.988 504.681 374.862C489.735 377.066 489.92 325.335 491.872 310.361C493.499 297.883 498.01 285.38 506.748 288.709Z" fill="#86583D"/>
<path d="M426.023 385.356L425.611 383.848L435.724 380.8C453.502 373.998 485.7 366.112 496.9 363.453C500.065 362.701 503.491 363.326 505.899 365.507C509.778 369.014 507.383 372.576 506.129 375.707C505.025 378.466 466.017 386.97 442.024 389.464L427.509 390.749L427.289 389.971C424.794 389.684 423.394 389.055 423.589 387.958C423.726 387.174 424.606 386.294 426.026 385.356H426.023Z" fill="#86583D"/>
<path d="M512.742 288.036C508.442 284.564 502.097 284.532 497.784 287.989C493.831 291.152 489.748 297.657 489.215 311.024C488.15 337.758 491.77 358.479 490.392 360.098C489.014 361.718 438.754 378.383 438.754 378.383L441.147 392.301C441.147 392.301 507.296 387.7 512.828 374.971C518.36 362.241 519.607 332.985 518.829 314.72C518.238 300.919 518.194 292.44 512.745 288.036H512.742Z" fill="#7B8BFF"/>
<path d="M488.548 238.835C488.516 237.291 488.443 235.751 488.322 234.214C487.891 228.688 486.36 222.441 481.444 219.878C477.511 217.827 472.777 218.864 468.342 219.036C461.27 219.31 454.127 217.161 448.385 213.025C445.916 211.246 443.559 209.049 440.573 208.475C436.559 207.703 432.499 210.2 430.135 213.532C426.466 218.711 426.147 226.051 429.353 231.526C432.53 236.95 439.064 240.276 445.335 239.75C449.492 239.402 455.818 236.727 458.75 241.315C461.12 245.046 458.938 248.675 460.913 250.719C464.135 254.118 467.484 241.513 470.189 241.979C472.844 242.451 475.549 245.183 472.85 251.156C469.985 257.428 479.035 259.861 483.457 260.572C485.144 260.843 486.242 262.001 487.141 260.684C488.446 258.774 487.55 253.42 487.853 251.146C488.398 247.068 488.631 242.945 488.548 238.828V238.835Z" fill="#0D0C54"/>
<path d="M450.57 587.231C450.57 587.231 453.981 593.414 449.629 602.56C444.586 613.159 441.635 612.862 442.643 615.321C443.651 617.779 477.421 598.079 477.421 598.079L467.038 578.928C467.038 578.928 450.315 586.724 450.567 587.231H450.57Z" fill="#4B5BD0"/>
<path d="M309.495 587.959C309.495 587.959 307.262 594.658 297.59 597.665C286.377 601.154 284.593 598.784 283.47 601.192C282.347 603.599 319.735 615.037 319.735 615.037L326.769 594.419C326.769 594.419 309.696 587.426 309.492 587.955L309.495 587.959Z" fill="#4B5BD0"/>
<path d="M291.12 335.051L323.047 400.35C323.047 400.35 389.356 399.859 389.847 400.35L357.921 335.051C357.921 335.051 290.138 335.051 291.12 335.051Z" fill="#DEE2E2"/>
<path d="M437.813 400.165L389.659 400.133L387.742 396.217L385.56 391.769L436.543 391.418L437.194 395.806L437.813 400.165Z" fill="#D1D3D3"/>
<path d="M357.917 335.051H360.374L391.688 399.859L389.672 400.124L357.917 335.051Z" fill="#D1D3D3"/>
<path d="M437.813 400.165L389.659 400.133L387.742 396.214C387.799 396.367 437.28 395.809 437.194 395.803L437.813 400.162V400.165Z" fill="#D1D3D3"/>
<path d="M333.513 371.92C336.171 375.204 340.308 376.266 342.758 374.289C345.208 372.312 345.042 368.042 342.385 364.758C339.728 361.47 335.59 360.411 333.14 362.388C330.69 364.365 330.856 368.632 333.513 371.92Z" fill="#D1D3D3"/>
<path d="M512.155 406.59H501.388V613.545H512.155V406.59Z" fill="#0D0C54"/>
<path d="M259.216 406.59H248.45V613.545H259.216V406.59Z" fill="#0D0C54"/>
<path d="M578.033 413.765L192.562 413.765C192.03 413.765 191.596 413.331 191.596 412.799V401.278C191.596 400.746 192.03 400.312 192.562 400.312L578.033 400.312C578.566 400.312 579 400.746 579 401.278V412.799C579 413.331 578.566 413.765 578.033 413.765Z" fill="#0D0C54"/>
<path d="M253.857 389.285C253.114 387.579 250.134 381.017 249.4 376.872C248.667 372.723 246.411 369.356 246.351 367.283C246.29 365.21 249.691 363.992 250.581 359.735C251.471 355.478 253.26 348.533 254.364 348.744C255.468 348.954 256.224 356.579 257.277 358.46C258.329 360.341 261.165 362.675 258.967 365.386C256.769 368.093 257.943 371.333 259.959 374.161C261.976 376.99 256.262 380.513 256.824 384.362C257.385 388.207 256.32 393.386 256.32 393.386L253.86 389.292L253.857 389.285Z" fill="#DEE2E2"/>
<path d="M254.843 381.071C254.673 381.071 254.53 380.943 254.511 380.771C254.233 378.236 253.461 376.301 252.842 374.748C252.354 373.523 251.933 372.465 251.895 371.473C251.847 370.255 252.533 369.311 253.193 368.396C253.806 367.548 254.441 366.674 254.591 365.52C254.906 363.106 252.731 357.749 252.708 357.694C252.638 357.522 252.721 357.328 252.89 357.258C253.062 357.187 253.257 357.27 253.327 357.439C253.42 357.666 255.595 363.016 255.254 365.606C255.082 366.926 254.364 367.914 253.732 368.788C253.085 369.684 252.523 370.459 252.562 371.444C252.597 372.321 252.98 373.281 253.461 374.499C254.096 376.09 254.884 378.07 255.174 380.698C255.193 380.883 255.063 381.049 254.878 381.068C254.865 381.068 254.852 381.068 254.839 381.068L254.843 381.071Z" fill="#F4F4F4"/>
<path d="M248.178 388.006C247.355 387.637 247.087 383.147 245.579 382.474C244.07 381.804 242.979 379.709 242.478 377.528C241.974 375.35 237.53 374.429 236.691 372.082C235.852 369.735 238.369 368.058 238.2 365.88C238.031 363.702 236.187 360.599 237.53 359.174C238.873 357.749 241.218 362.694 242.478 363.699C243.735 364.703 246.165 365.794 245.496 367.637C244.826 369.48 245.748 372.496 250.108 374.174C254.469 375.851 257.318 392.11 248.178 388.003V388.006Z" fill="#DEE2E2"/>
<path d="M248.848 380.296C248.708 380.296 248.577 380.207 248.529 380.066C247.674 377.445 246.325 376.412 244.762 375.216C243.955 374.601 243.122 373.963 242.309 373.061C239.868 370.36 241.007 365.663 241.058 365.465C241.103 365.287 241.281 365.178 241.466 365.22C241.645 365.264 241.757 365.446 241.712 365.628C241.703 365.673 240.612 370.181 242.81 372.614C243.582 373.469 244.389 374.088 245.17 374.684C246.752 375.896 248.245 377.037 249.167 379.856C249.225 380.031 249.129 380.223 248.954 380.28C248.919 380.29 248.883 380.296 248.848 380.296Z" fill="#F4F4F4"/>
<path d="M256.31 388.51C256.533 387.841 256.757 384.936 258.323 384.263C259.889 383.593 261.452 383.147 262.684 381.135C263.912 379.123 262.684 375.995 264.027 373.871C265.37 371.747 268.388 373.759 269.951 371.636C271.517 369.512 268.049 365.826 269.281 364.26C270.509 362.694 272.187 358.45 270.509 357.892C268.831 357.334 264.138 360.351 262.907 363.032C261.679 365.714 259.219 367.28 258.658 369.4C258.1 371.524 256.31 372.64 255.863 374.764C255.417 376.887 256.087 380.127 255.305 382.474C254.524 384.821 256.31 388.507 256.31 388.507V388.51Z" fill="#DEE2E2"/>
<path d="M260.314 400.58H246.271C245.259 400.58 244.43 399.782 244.389 398.772L243.789 383.816H262.792L262.192 398.772C262.151 399.782 261.322 400.58 260.31 400.58H260.314Z" fill="#06A7DF"/>
<path d="M259.439 380.688C259.439 380.688 259.423 380.688 259.414 380.688C259.229 380.676 259.092 380.513 259.104 380.328C259.526 374.531 261.542 371.387 263.654 368.852C265.261 366.923 266.26 363.208 266.269 363.169C266.317 362.991 266.499 362.879 266.681 362.93C266.86 362.978 266.968 363.16 266.92 363.342C266.879 363.498 265.874 367.238 264.17 369.282C262.129 371.731 260.183 374.77 259.774 380.379C259.762 380.554 259.615 380.691 259.439 380.691V380.688Z" fill="#F4F4F4"/>
<path d="M198.346 107H95.3477C95.1557 107 95 107.156 95 107.348V156.763C95 156.955 95.1557 157.111 95.3477 157.111H198.346C198.538 157.111 198.694 156.955 198.694 156.763V107.348C198.694 107.156 198.538 107 198.346 107Z" fill="#9873FF"/>
<path d="M330.33 107H227.331C227.139 107 226.983 107.156 226.983 107.348V156.763C226.983 156.955 227.139 157.111 227.331 157.111H330.33C330.522 157.111 330.677 156.955 330.677 156.763V107.348C330.677 107.156 330.522 107 330.33 107Z" fill="#A4BBFF"/>
<path d="M462.313 107H359.315C359.123 107 358.967 107.156 358.967 107.348V156.763C358.967 156.955 359.123 157.111 359.315 157.111H462.313C462.505 157.111 462.661 156.955 462.661 156.763V107.348C462.661 107.156 462.505 107 462.313 107Z" fill="#A7D6FF"/>
<path d="M133.584 129.315V130.747H133.275C131.96 130.772 130.914 131.161 130.136 131.914C129.357 132.669 128.907 133.731 128.786 135.099C129.485 134.296 130.442 133.894 131.651 133.894C132.86 133.894 133.731 134.302 134.423 135.115C135.112 135.931 135.46 136.984 135.46 138.272C135.46 139.64 135.087 140.734 134.34 141.556C133.594 142.379 132.595 142.787 131.341 142.787C130.088 142.787 129.038 142.299 128.247 141.324C127.456 140.348 127.06 139.091 127.06 137.551V136.904C127.06 134.458 127.58 132.59 128.624 131.298C129.667 130.007 131.22 129.344 133.284 129.315H133.584ZM131.367 135.3C130.79 135.3 130.257 135.472 129.772 135.82C129.284 136.167 128.949 136.601 128.758 137.124V137.746C128.758 138.843 129.006 139.723 129.498 140.392C129.992 141.062 130.605 141.397 131.341 141.397C132.078 141.397 132.7 141.116 133.134 140.558C133.571 139.997 133.788 139.267 133.788 138.361C133.788 137.456 133.568 136.709 133.125 136.148C132.685 135.587 132.098 135.303 131.367 135.303V135.3Z" fill="white"/>
<path d="M145.789 136.942C145.789 138.919 145.451 140.389 144.778 141.349C144.102 142.309 143.046 142.79 141.61 142.79C140.175 142.79 139.144 142.322 138.462 141.381C137.779 140.44 137.425 139.037 137.403 137.169V134.914C137.403 132.963 137.741 131.512 138.414 130.562C139.09 129.611 140.149 129.136 141.591 129.136C143.033 129.136 144.073 129.595 144.749 130.511C145.426 131.426 145.77 132.838 145.789 134.748V136.939V136.942ZM144.102 134.634C144.102 133.205 143.901 132.162 143.499 131.509C143.097 130.855 142.462 130.527 141.591 130.527C140.72 130.527 140.098 130.852 139.703 131.502C139.307 132.153 139.103 133.154 139.09 134.503V137.204C139.09 138.639 139.298 139.697 139.715 140.383C140.133 141.068 140.765 141.41 141.61 141.41C142.456 141.41 143.065 141.088 143.47 140.443C143.875 139.799 144.086 138.782 144.105 137.395V134.63L144.102 134.634Z" fill="white"/>
<path d="M156.288 136.942C156.288 138.919 155.95 140.389 155.277 141.349C154.6 142.309 153.544 142.79 152.109 142.79C150.673 142.79 149.643 142.322 148.96 141.381C148.278 140.44 147.924 139.037 147.901 137.169V134.914C147.901 132.963 148.239 131.512 148.912 130.562C149.589 129.611 150.648 129.136 152.09 129.136C153.532 129.136 154.572 129.595 155.248 130.511C155.924 131.426 156.269 132.838 156.288 134.748V136.939V136.942ZM154.6 134.634C154.6 133.205 154.399 132.162 153.997 131.509C153.596 130.855 152.961 130.527 152.09 130.527C151.219 130.527 150.597 130.852 150.201 131.502C149.806 132.153 149.602 133.154 149.589 134.503V137.204C149.589 138.639 149.796 139.697 150.214 140.383C150.632 141.068 151.264 141.41 152.109 141.41C152.954 141.41 153.564 141.088 153.969 140.443C154.374 139.799 154.584 138.782 154.604 137.395V134.63L154.6 134.634Z" fill="white"/>
<path d="M166.783 136.942C166.783 138.919 166.445 140.389 165.772 141.349C165.096 142.309 164.04 142.79 162.604 142.79C161.169 142.79 160.138 142.322 159.456 141.381C158.773 140.44 158.419 139.037 158.397 137.169V134.914C158.397 132.963 158.735 131.512 159.408 130.562C160.084 129.611 161.143 129.136 162.585 129.136C164.027 129.136 165.067 129.595 165.743 130.511C166.42 131.426 166.764 132.838 166.783 134.748V136.939V136.942ZM165.096 134.634C165.096 133.205 164.895 132.162 164.493 131.509C164.091 130.855 163.456 130.527 162.585 130.527C161.714 130.527 161.092 130.852 160.697 131.502C160.301 132.153 160.097 133.154 160.084 134.503V137.204C160.084 138.639 160.292 139.697 160.709 140.383C161.127 141.068 161.759 141.41 162.604 141.41C163.45 141.41 164.059 141.088 164.464 140.443C164.869 139.799 165.08 138.782 165.099 137.395V134.63L165.096 134.634Z" fill="white"/>
<path d="M113.11 113.505V116.579C113.11 117.006 112.973 117.354 112.708 117.625C112.443 117.896 112.083 118.049 111.627 118.081L111.47 118.087C110.976 118.087 110.58 117.953 110.287 117.685C109.993 117.417 109.843 117.051 109.837 116.582V113.502H110.427V116.563C110.427 116.891 110.517 117.143 110.698 117.325C110.88 117.507 111.135 117.596 111.47 117.596C111.805 117.596 112.067 117.507 112.246 117.325C112.424 117.146 112.514 116.891 112.514 116.563V113.498H113.113L113.11 113.505Z" fill="white"/>
<path d="M115.921 117.134C115.921 116.977 115.86 116.859 115.745 116.77C115.627 116.684 115.423 116.611 115.133 116.547C114.842 116.483 114.609 116.41 114.44 116.324C114.271 116.238 114.144 116.132 114.061 116.014C113.981 115.893 113.936 115.75 113.936 115.584C113.936 115.31 114.054 115.077 114.287 114.886C114.52 114.694 114.817 114.599 115.18 114.599C115.563 114.599 115.87 114.697 116.109 114.895C116.345 115.093 116.463 115.345 116.463 115.651H115.885C115.885 115.495 115.819 115.358 115.685 115.243C115.551 115.128 115.385 115.074 115.18 115.074C114.976 115.074 114.807 115.118 114.689 115.211C114.571 115.303 114.511 115.421 114.511 115.568C114.511 115.705 114.568 115.81 114.676 115.881C114.788 115.951 114.986 116.018 115.273 116.081C115.56 116.145 115.793 116.222 115.972 116.311C116.15 116.4 116.281 116.509 116.367 116.633C116.453 116.757 116.498 116.91 116.498 117.092C116.498 117.392 116.377 117.634 116.138 117.816C115.895 117.998 115.586 118.087 115.203 118.087C114.935 118.087 114.696 118.039 114.488 117.944C114.281 117.848 114.118 117.714 114.003 117.545C113.885 117.373 113.828 117.188 113.828 116.99H114.402C114.412 117.185 114.488 117.335 114.632 117.449C114.775 117.561 114.967 117.618 115.203 117.618C115.42 117.618 115.595 117.574 115.726 117.488C115.86 117.398 115.924 117.284 115.924 117.134H115.921Z" fill="white"/>
<path d="M118.639 118.087C118.182 118.087 117.812 117.937 117.525 117.637C117.238 117.338 117.098 116.939 117.098 116.439V116.333C117.098 115.998 117.162 115.702 117.289 115.44C117.417 115.179 117.595 114.975 117.822 114.825C118.048 114.675 118.3 114.602 118.565 114.602C119.002 114.602 119.344 114.745 119.583 115.032C119.825 115.319 119.946 115.731 119.946 116.27V116.509H117.669C117.675 116.84 117.774 117.108 117.959 117.312C118.144 117.516 118.38 117.618 118.667 117.618C118.868 117.618 119.044 117.577 119.184 117.494C119.324 117.411 119.449 117.299 119.554 117.166L119.905 117.44C119.624 117.873 119.2 118.09 118.639 118.09V118.087ZM118.568 115.074C118.335 115.074 118.141 115.157 117.985 115.326C117.828 115.495 117.729 115.731 117.694 116.037H119.379V115.992C119.363 115.699 119.283 115.472 119.143 115.313C119.002 115.153 118.811 115.074 118.572 115.074H118.568Z" fill="white"/>
<path d="M122.24 115.182C122.154 115.166 122.058 115.16 121.956 115.16C121.58 115.16 121.325 115.319 121.187 115.641V118.026H120.613V114.666H121.171L121.181 115.055C121.369 114.755 121.637 114.605 121.982 114.605C122.093 114.605 122.18 114.621 122.237 114.65V115.185L122.24 115.182Z" fill="white"/>
<path d="M127.912 115.909C127.912 116.352 127.839 116.738 127.689 117.07C127.539 117.402 127.328 117.653 127.054 117.826C126.78 117.998 126.461 118.087 126.097 118.087C125.733 118.087 125.427 117.998 125.149 117.826C124.875 117.65 124.661 117.402 124.508 117.076C124.355 116.751 124.279 116.378 124.272 115.951V115.625C124.272 115.192 124.349 114.806 124.499 114.474C124.649 114.143 124.862 113.884 125.14 113.709C125.414 113.534 125.733 113.444 126.087 113.444C126.441 113.444 126.77 113.534 127.048 113.706C127.322 113.881 127.536 114.136 127.686 114.468C127.832 114.8 127.909 115.189 127.909 115.629V115.916L127.912 115.909ZM127.319 115.616C127.319 115.08 127.21 114.669 126.997 114.382C126.783 114.095 126.48 113.951 126.091 113.951C125.701 113.951 125.417 114.095 125.201 114.382C124.984 114.669 124.872 115.067 124.866 115.578V115.909C124.866 116.429 124.977 116.837 125.194 117.134C125.411 117.43 125.714 117.58 126.097 117.58C126.48 117.58 126.78 117.44 126.993 117.159C127.204 116.879 127.312 116.477 127.319 115.954V115.619V115.616Z" fill="white"/>
<path d="M129.262 114.666L129.281 115.09C129.539 114.768 129.874 114.605 130.289 114.605C131 114.605 131.357 115.007 131.364 115.807V118.03H130.79V115.804C130.79 115.562 130.732 115.383 130.624 115.268C130.515 115.153 130.346 115.096 130.116 115.096C129.928 115.096 129.766 115.147 129.625 115.246C129.485 115.345 129.373 115.476 129.293 115.638V118.033H128.719V114.672H129.262V114.666Z" fill="white"/>
<path d="M132.854 118.027H132.279V113.256H132.854V118.027Z" fill="white"/>
<path d="M133.775 113.773C133.775 113.68 133.804 113.601 133.862 113.537C133.919 113.473 134.002 113.441 134.117 113.441C134.232 113.441 134.315 113.473 134.372 113.537C134.429 113.601 134.458 113.68 134.458 113.773C134.458 113.865 134.429 113.945 134.372 114.006C134.315 114.069 134.232 114.098 134.117 114.098C134.002 114.098 133.919 114.066 133.862 114.006C133.804 113.945 133.775 113.865 133.775 113.773ZM134.398 118.023H133.823V114.662H134.398V118.023Z" fill="white"/>
<path d="M135.859 114.666L135.878 115.09C136.136 114.768 136.471 114.605 136.886 114.605C137.597 114.605 137.955 115.007 137.961 115.807V118.03H137.387V115.804C137.387 115.562 137.329 115.383 137.221 115.268C137.112 115.153 136.943 115.096 136.714 115.096C136.525 115.096 136.363 115.147 136.222 115.246C136.082 115.345 135.97 115.476 135.891 115.638V118.033H135.316V114.672H135.859V114.666Z" fill="white"/>
<path d="M140.223 118.087C139.766 118.087 139.396 117.937 139.109 117.637C138.822 117.338 138.682 116.939 138.682 116.439V116.333C138.682 115.998 138.746 115.702 138.873 115.44C139.001 115.179 139.18 114.975 139.406 114.825C139.636 114.678 139.885 114.602 140.149 114.602C140.586 114.602 140.928 114.745 141.167 115.032C141.409 115.319 141.531 115.731 141.531 116.27V116.509H139.253C139.259 116.84 139.358 117.108 139.543 117.312C139.728 117.516 139.964 117.618 140.251 117.618C140.452 117.618 140.628 117.577 140.768 117.494C140.909 117.411 141.033 117.299 141.138 117.166L141.489 117.44C141.208 117.873 140.784 118.09 140.223 118.09V118.087ZM140.152 115.074C139.92 115.074 139.725 115.157 139.569 115.326C139.412 115.495 139.314 115.731 139.278 116.037H140.963V115.992C140.947 115.699 140.867 115.472 140.727 115.313C140.586 115.153 140.395 115.074 140.156 115.074H140.152Z" fill="white"/>
<path d="M103.074 117.338C104.04 117.338 104.822 116.556 104.822 115.59C104.822 114.625 104.04 113.843 103.074 113.843C102.109 113.843 101.326 114.625 101.326 115.59C101.326 116.556 102.109 117.338 103.074 117.338Z" fill="white"/>
<path d="M256.782 142.609H255.085V131.359L251.681 132.609V131.075L256.52 129.26H256.785V142.609H256.782Z" fill="white"/>
<path d="M270.062 136.942C270.062 138.919 269.724 140.389 269.051 141.349C268.375 142.309 267.319 142.79 265.883 142.79C264.448 142.79 263.417 142.322 262.735 141.381C262.052 140.44 261.698 139.037 261.676 137.169V134.914C261.676 132.963 262.014 131.512 262.687 130.562C263.363 129.611 264.422 129.136 265.864 129.136C267.306 129.136 268.346 129.595 269.022 130.511C269.699 131.426 270.043 132.838 270.062 134.748V136.939V136.942ZM268.375 134.634C268.375 133.205 268.174 132.162 267.772 131.509C267.37 130.855 266.735 130.527 265.864 130.527C264.993 130.527 264.371 130.852 263.976 131.502C263.58 132.153 263.376 133.154 263.363 134.503V137.204C263.363 138.639 263.571 139.697 263.988 140.383C264.406 141.068 265.038 141.41 265.883 141.41C266.729 141.41 267.338 141.088 267.743 140.443C268.148 139.799 268.359 138.782 268.378 137.395V134.63L268.375 134.634Z" fill="white"/>
<path d="M272.436 141.725C272.436 141.432 272.522 141.19 272.697 140.995C272.87 140.801 273.131 140.702 273.479 140.702C273.827 140.702 274.088 140.801 274.27 140.995C274.449 141.19 274.538 141.432 274.538 141.725C274.538 142.019 274.449 142.239 274.27 142.427C274.088 142.615 273.827 142.711 273.479 142.711C273.131 142.711 272.873 142.615 272.697 142.427C272.525 142.239 272.436 142.003 272.436 141.725Z" fill="white"/>
<path d="M285.48 136.942C285.48 138.919 285.142 140.389 284.469 141.349C283.793 142.309 282.737 142.79 281.301 142.79C279.866 142.79 278.835 142.322 278.152 141.381C277.47 140.44 277.116 139.037 277.093 137.169V134.914C277.093 132.963 277.432 131.512 278.105 130.562C278.781 129.611 279.84 129.136 281.282 129.136C282.724 129.136 283.764 129.595 284.44 130.511C285.116 131.426 285.461 132.838 285.48 134.748V136.939V136.942ZM283.793 134.634C283.793 133.205 283.592 132.162 283.19 131.509C282.788 130.855 282.153 130.527 281.282 130.527C280.411 130.527 279.789 130.852 279.393 131.502C278.998 132.153 278.794 133.154 278.781 134.503V137.204C278.781 138.639 278.988 139.697 279.406 140.383C279.824 141.068 280.456 141.41 281.301 141.41C282.146 141.41 282.756 141.088 283.161 140.443C283.566 139.799 283.777 138.782 283.796 137.395V134.63L283.793 134.634Z" fill="white"/>
<path d="M295.979 136.942C295.979 138.919 295.641 140.389 294.967 141.349C294.291 142.309 293.235 142.79 291.8 142.79C290.364 142.79 289.334 142.322 288.651 141.381C287.968 140.44 287.614 139.037 287.592 137.169V134.914C287.592 132.963 287.93 131.512 288.603 130.562C289.279 129.611 290.339 129.136 291.781 129.136C293.222 129.136 294.262 129.595 294.939 130.511C295.615 131.426 295.96 132.838 295.979 134.748V136.939V136.942ZM294.291 134.634C294.291 133.205 294.09 132.162 293.688 131.509C293.286 130.855 292.651 130.527 291.781 130.527C290.91 130.527 290.288 130.852 289.892 131.502C289.496 132.153 289.292 133.154 289.279 134.503V137.204C289.279 138.639 289.487 139.697 289.905 140.383C290.323 141.068 290.954 141.41 291.8 141.41C292.645 141.41 293.254 141.088 293.659 140.443C294.065 139.799 294.275 138.782 294.294 137.395V134.63L294.291 134.634Z" fill="white"/>
<path d="M306.474 136.942C306.474 138.919 306.136 140.389 305.463 141.349C304.787 142.309 303.731 142.79 302.295 142.79C300.86 142.79 299.829 142.322 299.146 141.381C298.464 140.44 298.11 139.037 298.087 137.169V134.914C298.087 132.963 298.425 131.512 299.099 130.562C299.775 129.611 300.834 129.136 302.276 129.136C303.718 129.136 304.758 129.595 305.434 130.511C306.11 131.426 306.455 132.838 306.474 134.748V136.939V136.942ZM304.787 134.634C304.787 133.205 304.586 132.162 304.184 131.509C303.782 130.855 303.147 130.527 302.276 130.527C301.405 130.527 300.783 130.852 300.387 131.502C299.992 132.153 299.788 133.154 299.775 134.503V137.204C299.775 138.639 299.982 139.697 300.4 140.383C300.818 141.068 301.45 141.41 302.295 141.41C303.14 141.41 303.75 141.088 304.155 140.443C304.56 139.799 304.771 138.782 304.79 137.395V134.63L304.787 134.634Z" fill="white"/>
<path d="M245.059 117.236L246.35 113.505H247.004L245.326 118.027H244.797L243.122 113.505H243.773L245.059 117.236Z" fill="white"/>
<path d="M247.521 113.773C247.521 113.68 247.55 113.601 247.607 113.537C247.665 113.473 247.748 113.441 247.863 113.441C247.977 113.441 248.06 113.473 248.118 113.537C248.175 113.601 248.204 113.68 248.204 113.773C248.204 113.865 248.175 113.945 248.118 114.006C248.06 114.069 247.977 114.098 247.863 114.098C247.748 114.098 247.665 114.066 247.607 114.006C247.55 113.945 247.521 113.865 247.521 113.773ZM248.143 118.023H247.569V114.662H248.143V118.023Z" fill="white"/>
<path d="M251.021 117.134C251.021 116.977 250.96 116.859 250.845 116.77C250.727 116.684 250.523 116.611 250.233 116.547C249.943 116.483 249.71 116.41 249.541 116.324C249.372 116.238 249.244 116.132 249.161 116.014C249.081 115.893 249.037 115.75 249.037 115.584C249.037 115.31 249.155 115.077 249.387 114.886C249.62 114.694 249.917 114.599 250.281 114.599C250.663 114.599 250.97 114.697 251.209 114.895C251.445 115.093 251.563 115.345 251.563 115.651H250.986C250.986 115.495 250.919 115.358 250.785 115.243C250.651 115.128 250.485 115.074 250.281 115.074C250.077 115.074 249.907 115.118 249.789 115.211C249.671 115.303 249.611 115.421 249.611 115.568C249.611 115.705 249.668 115.81 249.777 115.881C249.888 115.951 250.086 116.018 250.373 116.081C250.66 116.145 250.893 116.222 251.072 116.311C251.25 116.4 251.381 116.509 251.467 116.633C251.554 116.757 251.598 116.91 251.598 117.092C251.598 117.392 251.477 117.634 251.238 117.816C250.995 117.998 250.686 118.087 250.303 118.087C250.035 118.087 249.796 118.039 249.588 117.944C249.381 117.848 249.218 117.714 249.104 117.545C248.986 117.373 248.928 117.188 248.928 116.99H249.502C249.512 117.185 249.588 117.335 249.732 117.449C249.876 117.561 250.067 117.618 250.303 117.618C250.52 117.618 250.695 117.574 250.826 117.488C250.96 117.398 251.024 117.284 251.024 117.134H251.021Z" fill="white"/>
<path d="M252.345 113.773C252.345 113.68 252.373 113.601 252.431 113.537C252.488 113.473 252.571 113.441 252.686 113.441C252.801 113.441 252.884 113.473 252.941 113.537C252.999 113.601 253.027 113.68 253.027 113.773C253.027 113.865 252.999 113.945 252.941 114.006C252.884 114.069 252.801 114.098 252.686 114.098C252.571 114.098 252.488 114.066 252.431 114.006C252.373 113.945 252.345 113.865 252.345 113.773ZM252.967 118.023H252.393V114.662H252.967V118.023Z" fill="white"/>
<path d="M254.667 113.853V114.666H255.296V115.109H254.667V117.194C254.667 117.328 254.696 117.43 254.75 117.497C254.807 117.564 254.9 117.599 255.034 117.599C255.101 117.599 255.19 117.587 255.308 117.564V118.027C255.158 118.068 255.008 118.09 254.868 118.09C254.61 118.09 254.415 118.014 254.287 117.858C254.157 117.701 254.09 117.481 254.09 117.194V115.109H253.477V114.666H254.09V113.853H254.664H254.667Z" fill="white"/>
<path d="M255.752 116.314C255.752 115.986 255.815 115.689 255.946 115.424C256.077 115.16 256.256 114.959 256.485 114.815C256.718 114.672 256.98 114.602 257.277 114.602C257.736 114.602 258.106 114.761 258.387 115.077C258.671 115.393 258.811 115.814 258.811 116.34V116.378C258.811 116.706 258.747 117 258.623 117.258C258.495 117.516 258.317 117.72 258.087 117.864C257.854 118.007 257.586 118.081 257.283 118.081C256.827 118.081 256.457 117.921 256.176 117.606C255.892 117.29 255.752 116.869 255.752 116.349V116.308V116.314ZM256.329 116.381C256.329 116.754 256.415 117.054 256.587 117.277C256.76 117.504 256.993 117.615 257.283 117.615C257.573 117.615 257.806 117.5 257.978 117.274C258.151 117.044 258.237 116.725 258.237 116.311C258.237 115.941 258.151 115.645 257.975 115.415C257.8 115.185 257.567 115.071 257.277 115.071C256.986 115.071 256.763 115.182 256.591 115.409C256.418 115.635 256.329 115.957 256.329 116.378V116.381Z" fill="white"/>
<path d="M261.159 115.182C261.073 115.166 260.977 115.16 260.875 115.16C260.499 115.16 260.243 115.319 260.106 115.641V118.026H259.532V114.666H260.09L260.1 115.055C260.288 114.755 260.556 114.605 260.9 114.605C261.012 114.605 261.098 114.621 261.156 114.65V115.185L261.159 115.182Z" fill="white"/>
<path d="M263.644 117.134C263.644 116.977 263.583 116.859 263.468 116.77C263.35 116.684 263.146 116.611 262.856 116.547C262.566 116.483 262.333 116.41 262.164 116.324C261.995 116.238 261.867 116.132 261.784 116.014C261.704 115.893 261.66 115.75 261.66 115.584C261.66 115.31 261.778 115.077 262.011 114.886C262.244 114.694 262.54 114.599 262.904 114.599C263.287 114.599 263.593 114.697 263.832 114.895C264.068 115.093 264.186 115.345 264.186 115.651H263.609C263.609 115.495 263.542 115.358 263.408 115.243C263.274 115.128 263.108 115.074 262.904 115.074C262.7 115.074 262.531 115.118 262.413 115.211C262.295 115.303 262.234 115.421 262.234 115.568C262.234 115.705 262.291 115.81 262.4 115.881C262.511 115.951 262.709 116.018 262.996 116.081C263.283 116.145 263.516 116.222 263.695 116.311C263.874 116.4 264.004 116.509 264.091 116.633C264.177 116.757 264.221 116.91 264.221 117.092C264.221 117.392 264.1 117.634 263.861 117.816C263.618 117.998 263.309 118.087 262.926 118.087C262.658 118.087 262.419 118.039 262.212 117.944C262.004 117.848 261.842 117.714 261.727 117.545C261.609 117.373 261.551 117.188 261.551 116.99H262.125C262.135 117.185 262.212 117.335 262.355 117.449C262.499 117.561 262.69 117.618 262.926 117.618C263.143 117.618 263.319 117.574 263.449 117.488C263.583 117.398 263.647 117.284 263.647 117.134H263.644Z" fill="white"/>
<path d="M238.458 115.59C238.458 116.557 237.673 117.338 236.71 117.338C235.747 117.338 234.962 116.553 234.962 115.59C234.962 114.627 235.747 113.843 236.71 113.843C237.673 113.843 238.458 114.627 238.458 115.59Z" fill="white"/>
<path d="M391.924 142.609H383.218V141.394L387.818 136.286C388.501 135.514 388.97 134.886 389.228 134.401C389.487 133.916 389.617 133.416 389.617 132.899C389.617 132.204 389.407 131.636 388.989 131.193C388.568 130.75 388.009 130.527 387.308 130.527C386.469 130.527 385.815 130.766 385.349 131.244C384.883 131.723 384.65 132.386 384.65 133.237H382.963C382.963 132.013 383.358 131.027 384.146 130.272C384.934 129.516 385.99 129.14 387.308 129.14C388.542 129.14 389.518 129.465 390.236 130.112C390.954 130.76 391.314 131.62 391.314 132.698C391.314 134.006 390.482 135.562 388.813 137.37L385.253 141.228H391.924V142.606V142.609Z" fill="white"/>
<path d="M402.422 142.609H393.713V141.394L398.313 136.285C398.996 135.514 399.465 134.885 399.723 134.401C399.982 133.916 400.113 133.415 400.113 132.899C400.113 132.204 399.902 131.636 399.484 131.193C399.063 130.75 398.505 130.526 397.803 130.526C396.964 130.526 396.31 130.766 395.844 131.244C395.379 131.722 395.146 132.386 395.146 133.237H393.458C393.458 132.012 393.854 131.027 394.642 130.271C395.43 129.516 396.486 129.139 397.803 129.139C399.038 129.139 400.014 129.465 400.732 130.112C401.449 130.759 401.81 131.62 401.81 132.698C401.81 134.005 400.977 135.561 399.309 137.37L395.749 141.228H402.419V142.605L402.422 142.609Z" fill="white"/>
<path d="M404.422 141.725C404.422 141.432 404.509 141.19 404.684 140.995C404.856 140.801 405.118 140.702 405.466 140.702C405.813 140.702 406.075 140.801 406.257 140.995C406.435 141.19 406.525 141.432 406.525 141.725C406.525 142.019 406.435 142.239 406.257 142.427C406.075 142.615 405.813 142.711 405.466 142.711C405.118 142.711 404.86 142.615 404.684 142.427C404.512 142.239 404.422 142.003 404.422 141.725Z" fill="white"/>
<path d="M417.464 136.942C417.464 138.919 417.125 140.389 416.452 141.349C415.776 142.309 414.72 142.79 413.285 142.79C411.849 142.79 410.819 142.322 410.136 141.381C409.453 140.44 409.099 139.037 409.077 137.169V134.914C409.077 132.963 409.415 131.512 410.088 130.562C410.764 129.611 411.824 129.136 413.265 129.136C414.707 129.136 415.747 129.595 416.424 130.511C417.1 131.426 417.444 132.838 417.464 134.748V136.939V136.942ZM415.776 134.634C415.776 133.205 415.575 132.162 415.173 131.509C414.771 130.855 414.136 130.527 413.265 130.527C412.395 130.527 411.772 130.852 411.377 131.502C410.981 132.153 410.777 133.154 410.764 134.503V137.204C410.764 138.639 410.972 139.697 411.39 140.383C411.808 141.068 412.439 141.41 413.285 141.41C414.13 141.41 414.739 141.088 415.144 140.443C415.55 139.799 415.76 138.782 415.779 137.395V134.63L415.776 134.634Z" fill="white"/>
<path d="M427.962 136.942C427.962 138.919 427.624 140.389 426.951 141.349C426.275 142.309 425.219 142.79 423.783 142.79C422.348 142.79 421.317 142.322 420.635 141.381C419.952 140.44 419.598 139.037 419.575 137.169V134.914C419.575 132.963 419.914 131.512 420.587 130.562C421.263 129.611 422.322 129.136 423.764 129.136C425.206 129.136 426.246 129.595 426.922 130.511C427.598 131.426 427.943 132.838 427.962 134.748V136.939V136.942ZM426.275 134.634C426.275 133.205 426.074 132.162 425.672 131.509C425.27 130.855 424.635 130.527 423.764 130.527C422.893 130.527 422.271 130.852 421.875 131.502C421.48 132.153 421.276 133.154 421.263 134.503V137.204C421.263 138.639 421.47 139.697 421.888 140.383C422.306 141.068 422.938 141.41 423.783 141.41C424.629 141.41 425.238 141.088 425.643 140.443C426.048 139.799 426.259 138.782 426.278 137.395V134.63L426.275 134.634Z" fill="white"/>
<path d="M438.458 136.942C438.458 138.919 438.119 140.389 437.446 141.349C436.77 142.309 435.714 142.79 434.279 142.79C432.843 142.79 431.813 142.322 431.13 141.381C430.447 140.44 430.093 139.037 430.071 137.169V134.914C430.071 132.963 430.409 131.512 431.082 130.562C431.758 129.611 432.817 129.136 434.259 129.136C435.701 129.136 436.741 129.595 437.418 130.511C438.094 131.426 438.438 132.838 438.458 134.748V136.939V136.942ZM436.77 134.634C436.77 133.205 436.569 132.162 436.167 131.509C435.765 130.855 435.13 130.527 434.259 130.527C433.388 130.527 432.766 130.852 432.371 131.502C431.975 132.153 431.771 133.154 431.758 134.503V137.204C431.758 138.639 431.966 139.697 432.384 140.383C432.801 141.068 433.433 141.41 434.279 141.41C435.124 141.41 435.733 141.088 436.138 140.443C436.543 139.799 436.754 138.782 436.773 137.395V134.63L436.77 134.634Z" fill="white"/>
<path d="M375.769 116.257V118.027H375.173V113.505H376.841C377.335 113.505 377.725 113.633 378.005 113.884C378.286 114.136 378.426 114.471 378.426 114.889C378.426 115.326 378.289 115.667 378.015 115.903C377.741 116.139 377.348 116.26 376.835 116.26H375.769V116.257ZM375.769 115.769H376.841C377.16 115.769 377.406 115.692 377.575 115.543C377.744 115.393 377.83 115.176 377.83 114.889C377.83 114.621 377.744 114.404 377.575 114.242C377.406 114.079 377.173 113.996 376.876 113.99H375.769V115.766V115.769Z" fill="white"/>
<path d="M381.138 118.026C381.106 117.96 381.077 117.842 381.058 117.673C380.79 117.95 380.471 118.09 380.101 118.09C379.77 118.09 379.498 117.995 379.285 117.81C379.074 117.622 378.966 117.386 378.966 117.095C378.966 116.745 379.1 116.474 379.364 116.279C379.629 116.085 380.006 115.989 380.487 115.989H381.046V115.724C381.046 115.523 380.985 115.364 380.864 115.243C380.742 115.125 380.567 115.064 380.334 115.064C380.13 115.064 379.958 115.115 379.817 115.22C379.68 115.322 379.61 115.45 379.61 115.597H379.033C379.033 115.431 379.093 115.268 379.211 115.112C379.329 114.956 379.492 114.831 379.696 114.742C379.9 114.65 380.124 114.605 380.369 114.605C380.758 114.605 381.061 114.704 381.282 114.895C381.502 115.09 381.617 115.358 381.623 115.696V117.242C381.623 117.551 381.661 117.797 381.741 117.979V118.03H381.138V118.026ZM380.184 117.59C380.366 117.59 380.535 117.545 380.698 117.449C380.857 117.357 380.975 117.236 381.049 117.086V116.397H380.599C379.894 116.397 379.54 116.604 379.54 117.016C379.54 117.197 379.6 117.338 379.722 117.44C379.843 117.542 379.996 117.593 380.184 117.593V117.59Z" fill="white"/>
<path d="M382.385 116.317C382.385 115.794 382.507 115.377 382.749 115.067C382.991 114.758 383.314 114.602 383.712 114.602C384.111 114.602 384.443 114.748 384.673 115.035L384.701 114.662H385.228V117.944C385.228 118.377 385.097 118.722 384.839 118.974C384.58 119.225 384.236 119.35 383.799 119.35C383.556 119.35 383.32 119.299 383.087 119.194C382.854 119.088 382.679 118.948 382.554 118.769L382.854 118.425C383.1 118.728 383.4 118.881 383.757 118.881C384.038 118.881 384.255 118.801 384.411 118.645C384.567 118.489 384.647 118.266 384.647 117.979V117.688C384.417 117.953 384.105 118.087 383.706 118.087C383.307 118.087 382.995 117.928 382.752 117.612C382.51 117.296 382.389 116.863 382.389 116.317H382.385ZM382.963 116.381C382.963 116.761 383.039 117.057 383.196 117.274C383.352 117.491 383.569 117.599 383.85 117.599C384.213 117.599 384.478 117.433 384.647 117.105V115.571C384.472 115.249 384.207 115.09 383.853 115.09C383.575 115.09 383.355 115.198 383.196 115.415C383.039 115.632 382.96 115.954 382.96 116.381H382.963Z" fill="white"/>
<path d="M387.49 118.087C387.033 118.087 386.663 117.937 386.376 117.637C386.089 117.338 385.949 116.939 385.949 116.439V116.333C385.949 115.998 386.013 115.702 386.14 115.44C386.268 115.179 386.446 114.975 386.673 114.825C386.903 114.678 387.151 114.602 387.416 114.602C387.853 114.602 388.195 114.745 388.434 115.032C388.676 115.319 388.797 115.731 388.797 116.27V116.509H386.52C386.526 116.84 386.625 117.108 386.81 117.312C386.995 117.516 387.231 117.618 387.518 117.618C387.719 117.618 387.895 117.577 388.035 117.494C388.175 117.411 388.3 117.299 388.405 117.166L388.756 117.44C388.475 117.873 388.051 118.09 387.49 118.09V118.087ZM387.419 115.074C387.186 115.074 386.992 115.157 386.836 115.326C386.679 115.495 386.58 115.731 386.545 116.037H388.23V115.992C388.214 115.699 388.134 115.472 387.994 115.313C387.853 115.153 387.662 115.074 387.423 115.074H387.419Z" fill="white"/>
<path d="M392.626 117.236L393.918 113.505H394.571L392.893 118.027H392.364L390.689 113.505H391.34L392.626 117.236Z" fill="white"/>
<path d="M395.088 113.773C395.088 113.68 395.117 113.601 395.174 113.537C395.232 113.473 395.315 113.441 395.43 113.441C395.544 113.441 395.627 113.473 395.685 113.537C395.742 113.601 395.771 113.68 395.771 113.773C395.771 113.865 395.742 113.945 395.685 114.006C395.627 114.069 395.544 114.098 395.43 114.098C395.315 114.098 395.232 114.066 395.174 114.006C395.117 113.945 395.088 113.865 395.088 113.773ZM395.71 118.023H395.136V114.662H395.71V118.023Z" fill="white"/>
<path d="M398.026 118.087C397.57 118.087 397.2 117.937 396.913 117.637C396.626 117.338 396.486 116.939 396.486 116.439V116.333C396.486 115.998 396.549 115.702 396.677 115.44C396.805 115.179 396.983 114.975 397.21 114.825C397.436 114.675 397.688 114.602 397.953 114.602C398.39 114.602 398.731 114.745 398.971 115.032C399.213 115.319 399.334 115.731 399.334 116.27V116.509H397.057C397.063 116.84 397.162 117.108 397.347 117.312C397.532 117.516 397.768 117.618 398.055 117.618C398.256 117.618 398.431 117.577 398.572 117.494C398.712 117.411 398.837 117.299 398.942 117.166L399.293 117.44C399.012 117.873 398.588 118.09 398.026 118.09V118.087ZM397.956 115.074C397.723 115.074 397.529 115.157 397.372 115.326C397.216 115.495 397.117 115.731 397.082 116.037H398.766V115.992C398.75 115.699 398.671 115.472 398.53 115.313C398.39 115.153 398.199 115.074 397.959 115.074H397.956Z" fill="white"/>
<path d="M402.977 117.236L403.625 114.666H404.199L403.22 118.027H402.754L401.937 115.479L401.14 118.027H400.674L399.698 114.666H400.269L400.932 117.182L401.714 114.666H402.18L402.977 117.236Z" fill="white"/>
<path d="M406.742 117.134C406.742 116.977 406.681 116.859 406.566 116.77C406.448 116.684 406.244 116.611 405.954 116.547C405.663 116.483 405.431 116.41 405.261 116.324C405.092 116.238 404.965 116.132 404.882 116.014C404.802 115.893 404.757 115.75 404.757 115.584C404.757 115.31 404.875 115.077 405.108 114.886C405.341 114.694 405.638 114.599 406.002 114.599C406.384 114.599 406.691 114.697 406.93 114.895C407.166 115.093 407.284 115.345 407.284 115.651H406.707C406.707 115.495 406.64 115.358 406.506 115.243C406.375 115.128 406.206 115.074 406.002 115.074C405.797 115.074 405.628 115.118 405.51 115.211C405.392 115.303 405.332 115.421 405.332 115.568C405.332 115.705 405.389 115.81 405.498 115.881C405.609 115.951 405.807 116.018 406.094 116.081C406.381 116.145 406.614 116.222 406.793 116.311C406.971 116.4 407.102 116.509 407.188 116.633C407.274 116.757 407.319 116.91 407.319 117.092C407.319 117.392 407.198 117.634 406.959 117.816C406.716 117.998 406.407 118.087 406.024 118.087C405.756 118.087 405.517 118.039 405.309 117.944C405.102 117.848 404.939 117.714 404.824 117.545C404.706 117.373 404.649 117.188 404.649 116.99H405.223C405.233 117.185 405.309 117.335 405.453 117.449C405.596 117.561 405.788 117.618 406.024 117.618C406.241 117.618 406.416 117.574 406.547 117.488C406.678 117.398 406.745 117.284 406.745 117.134H406.742Z" fill="white"/>
<path d="M368.323 117.338C369.289 117.338 370.072 116.556 370.072 115.59C370.072 114.625 369.289 113.843 368.323 113.843C367.358 113.843 366.575 114.625 366.575 115.59C366.575 116.556 367.358 117.338 368.323 117.338Z" fill="white"/>
<path d="M366.834 249.29H325.35V250.885H366.834V249.29Z" fill="#E8ECEF"/>
<path d="M146.753 344.388C130.92 344.388 118.083 357.216 118.083 373.045C118.083 388.874 130.917 401.702 146.753 401.702C162.588 401.702 175.425 388.874 175.425 373.045C175.425 357.216 162.592 344.388 146.753 344.388ZM146.753 391.779C136.404 391.779 128.008 383.392 128.008 373.042C128.008 362.691 136.401 354.305 146.753 354.305C157.105 354.305 165.501 362.691 165.501 373.042C165.501 383.392 157.108 391.779 146.753 391.779Z" fill="#F4F4F4"/>
<path d="M175.425 373.042C175.425 380.829 172.315 387.898 167.262 393.061L160.25 386.052C163.504 382.678 165.501 378.096 165.501 373.045C165.501 362.694 157.108 354.308 146.753 354.308V344.388C162.592 344.388 175.425 357.216 175.425 373.045V373.042Z" fill="#7B8BFF"/>
</svg>
