<svg width="602" height="544" viewBox="0 0 602 544" fill="none" xmlns="http://www.w3.org/2000/svg">
<path fill-rule="evenodd" clip-rule="evenodd" d="M261.551 6.33698C329.568 -0.168632 408.825 -12.5809 456.418 36.4768C503.794 85.3112 480.079 163.409 479.962 231.469C479.845 299.327 494.75 370.278 455.748 425.791C410.618 490.026 338.944 555.302 261.551 542.342C186.032 529.696 170.588 430.125 123.032 370.077C85.2707 322.397 19.8744 292.137 15.349 231.469C10.6522 168.503 54.1049 113.096 100.686 70.5011C144.984 29.994 201.814 12.0505 261.551 6.33698Z" fill="#9972FF"/>
<path d="M81.4152 45.4441H503.258C510.663 45.4441 516.676 51.4611 516.676 58.8717V372.359C516.676 379.77 510.663 385.787 503.258 385.787H81.4183C74.0129 385.787 68.0002 379.77 68.0002 372.359V58.8686C68.0002 51.458 74.0129 45.4441 81.4152 45.4441Z" fill="white"/>
<path d="M503.258 46.2672C510.202 46.2672 515.851 51.9195 515.851 58.8687V372.356C515.851 379.305 510.202 384.958 503.258 384.958H81.4152C74.4709 384.958 68.8227 379.305 68.8227 372.356V58.8718C68.8227 51.9226 74.4709 46.2703 81.4152 46.2703H503.258M503.258 44.6211H81.4152C73.5519 44.6211 67.1777 50.9998 67.1777 58.8718V372.359C67.1777 380.228 73.5519 386.61 81.4183 386.61H503.258C511.121 386.61 517.499 380.231 517.499 372.359V58.8718C517.496 50.9998 511.121 44.6211 503.258 44.6211Z" fill="#BDDDF9"/>
<path d="M81.4152 44.6211H503.258C511.118 44.6211 517.499 51.006 517.499 58.8718V78.304H67.1777V58.8718C67.1777 51.006 73.5581 44.6211 81.4183 44.6211H81.4152Z" fill="#BDDDF9"/>
<path d="M418.325 63.8458C418.927 61.292 417.346 58.733 414.794 58.1302C412.242 57.5274 409.685 59.1091 409.083 61.663C408.48 64.2169 410.061 66.7759 412.613 67.3786C415.165 67.9814 417.722 66.3997 418.325 63.8458Z" fill="white"/>
<path d="M448.47 66.1163C450.325 64.2608 450.325 61.2524 448.47 59.3969C446.616 57.5414 443.61 57.5414 441.756 59.3969C439.902 61.2524 439.902 64.2608 441.756 66.1163C443.61 67.9717 446.616 67.9717 448.47 66.1163Z" fill="white"/>
<path d="M479.863 66.1145C481.717 64.2591 481.717 61.2507 479.863 59.3952C478.009 57.5397 475.003 57.5397 473.149 59.3952C471.294 61.2507 471.294 64.2591 473.149 66.1145C475.003 67.97 478.009 67.97 479.863 66.1145Z" fill="white"/>
<path d="M179.411 279.934H385.159C387.065 279.934 388.611 278.387 388.611 276.479V214.95C388.611 213.042 387.065 211.496 385.159 211.496L179.411 211.496C177.504 211.496 175.959 213.042 175.959 214.95V276.479C175.959 278.387 177.504 279.934 179.411 279.934Z" fill="url(#paint0_linear_58_4)"/>
<path d="M178.196 122.434L490.563 122.434C491.796 122.434 492.797 121.433 492.797 120.199V106.197C492.797 104.963 491.796 103.962 490.563 103.962L178.196 103.962C176.962 103.962 175.962 104.963 175.962 106.197V120.199C175.962 121.433 176.962 122.434 178.196 122.434Z" fill="url(#paint1_linear_58_4)"/>
<path d="M249.866 138.683V197.719C249.866 199.097 249.102 200.216 248.158 200.216H178.139C177.195 200.216 176.432 199.097 176.432 197.719V138.683C176.432 137.305 177.195 136.186 178.139 136.186H248.158C249.102 136.186 249.866 137.305 249.866 138.683Z" fill="url(#paint2_linear_58_4)"/>
<path d="M316.296 136.192H257.056C255.692 136.192 254.586 137.299 254.586 138.665V197.737C254.586 199.103 255.692 200.21 257.056 200.21H316.296C317.66 200.21 318.766 199.103 318.766 197.737V138.665C318.766 137.299 317.66 136.192 316.296 136.192Z" fill="#BDDDF9"/>
<path d="M386.978 136.192H327.739C326.374 136.192 325.268 137.299 325.268 138.665V197.737C325.268 199.103 326.374 200.21 327.739 200.21H386.978C388.343 200.21 389.449 199.103 389.449 197.737V138.665C389.449 137.299 388.343 136.192 386.978 136.192Z" fill="url(#paint3_linear_58_4)"/>
<path d="M379.324 222.707H185.28V223.33H379.324V222.707Z" fill="#CBE3F7"/>
<path d="M379.324 234.725H185.28V235.349H379.324V234.725Z" fill="#CBE3F7"/>
<path d="M379.324 246.744H185.28V247.367H379.324V246.744Z" fill="#CBE3F7"/>
<path d="M379.324 258.762H185.28V259.386H379.324V258.762Z" fill="#CBE3F7"/>
<path d="M379.324 270.781H185.28V271.404H379.324V270.781Z" fill="#CBE3F7"/>
<path d="M206.477 267.9C196.754 267.9 191.648 261.836 191.411 261.546L192.449 260.689C192.511 260.761 198.63 268.003 210.026 266.279C215.562 265.437 219.459 260.081 223.59 254.41C228.36 247.857 233.295 241.079 241.236 241.079C248.567 241.079 252.271 244.91 255.857 248.611C259.552 252.427 263.041 256.034 270.387 256.034C277.733 256.034 282.671 249.78 288.229 243.162C294.158 236.1 300.292 228.799 309.127 228.799C317.962 228.799 321.408 231.685 325.072 234.476C328.785 237.303 332.29 239.975 340.624 239.975C357.045 239.975 368.099 220.213 368.208 220.013L369.386 220.662C368.924 221.503 357.843 241.322 340.624 241.322C331.839 241.322 327.985 238.385 324.259 235.545C320.611 232.767 317.168 230.142 309.127 230.142C301.086 230.142 294.992 237.201 289.26 244.028C283.746 250.594 278.048 257.381 270.387 257.381C262.726 257.381 258.617 253.4 254.888 249.55C251.342 245.886 247.996 242.426 241.236 242.426C233.977 242.426 229.251 248.92 224.678 255.205C220.568 260.848 216.319 266.684 210.228 267.61C208.914 267.81 207.661 267.9 206.48 267.9H206.477Z" fill="#74A3FD"/>
<path d="M143.415 116.635H109.902C106.644 116.635 104.002 113.992 104.002 110.73C104.002 107.469 106.644 104.826 109.902 104.826H143.415C146.674 104.826 149.316 107.469 149.316 110.73C149.316 113.992 146.674 116.635 143.415 116.635Z" fill="url(#paint4_linear_58_4)"/>
<path d="M141.069 149.149H112.248C110.967 149.149 109.927 150.189 109.927 151.472C109.927 152.754 110.967 153.794 112.248 153.794H141.069C142.351 153.794 143.39 152.754 143.39 151.472C143.39 150.189 142.351 149.149 141.069 149.149Z" fill="url(#paint5_linear_58_4)"/>
<path d="M141.069 176.388H112.245C110.965 176.388 109.924 175.347 109.924 174.065C109.924 172.784 110.965 171.743 112.245 171.743H141.069C142.35 171.743 143.39 172.781 143.39 174.065C143.39 175.347 142.35 176.388 141.069 176.388Z" fill="url(#paint6_linear_58_4)"/>
<path d="M141.069 198.981H112.245C110.965 198.981 109.924 197.943 109.924 196.659C109.924 195.377 110.965 194.336 112.245 194.336H141.069C142.35 194.336 143.39 195.374 143.39 196.659C143.39 197.94 142.35 198.981 141.069 198.981Z" fill="url(#paint7_linear_58_4)"/>
<path d="M141.069 221.575H112.245C110.965 221.575 109.924 220.537 109.924 219.252C109.924 217.971 110.965 216.93 112.245 216.93H141.069C142.35 216.93 143.39 217.968 143.39 219.252C143.39 220.534 142.35 221.575 141.069 221.575Z" fill="url(#paint8_linear_58_4)"/>
<path d="M141.069 244.168H112.245C110.965 244.168 109.924 243.13 109.924 241.846C109.924 240.564 110.965 239.523 112.245 239.523H141.069C142.35 239.523 143.39 240.564 143.39 241.846C143.39 243.127 142.35 244.168 141.069 244.168Z" fill="url(#paint9_linear_58_4)"/>
<path d="M501.856 210.694H405.774C403.969 210.694 402.505 212.159 402.505 213.965V277.468C402.505 279.274 403.969 280.738 405.774 280.738H501.856C503.661 280.738 505.124 279.274 505.124 277.468V213.965C505.124 212.159 503.661 210.694 501.856 210.694Z" fill="url(#paint10_linear_58_4)"/>
<path d="M501.856 288.997H405.774C403.969 288.997 402.505 290.461 402.505 292.267V355.77C402.505 357.577 403.969 359.041 405.774 359.041H501.856C503.661 359.041 505.124 357.577 505.124 355.77V292.267C505.124 290.461 503.661 288.997 501.856 288.997Z" fill="url(#paint11_linear_58_4)"/>
<path d="M470.883 248.293H436.741C435.317 248.293 434.164 247.14 434.164 245.715C434.164 244.29 435.317 243.136 436.741 243.136H470.883C472.306 243.136 473.459 244.29 473.459 245.715C473.459 247.14 472.306 248.293 470.883 248.293Z" fill="white"/>
<path d="M470.883 326.599H436.741C435.317 326.599 434.164 325.445 434.164 324.02C434.164 322.596 435.317 321.442 436.741 321.442H470.883C472.306 321.442 473.459 322.596 473.459 324.02C473.459 325.445 472.306 326.599 470.883 326.599Z" fill="url(#paint12_linear_58_4)"/>
<path d="M148.453 363.078H368.756C370.797 363.078 372.451 361.423 372.451 359.381V293.499C372.451 291.457 370.797 289.801 368.756 289.801H148.453C146.412 289.801 144.758 291.457 144.758 293.499V359.381C144.758 361.423 146.412 363.078 148.453 363.078Z" fill="url(#paint13_linear_58_4)"/>
<path d="M182.252 302.883C194.72 302.883 204.829 313 204.829 325.476C204.829 331.712 202.299 337.361 198.215 341.451L182.252 325.476V302.883Z" fill="url(#paint14_linear_58_4)"/>
<path d="M172.348 305.926C167.591 307.478 163.531 310.574 160.755 314.618L179.37 327.4V304.806C176.921 304.806 174.557 305.196 172.348 305.926Z" fill="white"/>
<path d="M179.37 327.4L160.755 314.618C158.254 318.256 156.793 322.655 156.793 327.4C156.793 332.756 158.656 337.676 161.765 341.545C165.902 346.695 172.251 349.993 179.37 349.993C185.601 349.993 191.246 347.462 195.333 343.375L179.37 327.4Z" fill="url(#paint15_linear_58_4)"/>
<path d="M256.065 313.551H234.541C233.715 313.551 233.049 312.881 233.049 312.058C233.049 311.232 233.718 310.565 234.541 310.565H256.065C256.891 310.565 257.558 311.235 257.558 312.058C257.558 312.884 256.888 313.551 256.065 313.551Z" fill="url(#paint16_linear_58_4)"/>
<path d="M353.986 313.551H270.496C269.67 313.551 269.004 312.881 269.004 312.058C269.004 311.232 269.673 310.565 270.496 310.565H353.986C354.812 310.565 355.478 311.235 355.478 312.058C355.478 312.884 354.808 313.551 353.986 313.551Z" fill="#BDDDF9"/>
<path d="M256.065 327.933H234.541C233.715 327.933 233.049 327.263 233.049 326.44C233.049 325.614 233.718 324.946 234.541 324.946H256.065C256.891 324.946 257.558 325.617 257.558 326.44C257.558 327.266 256.888 327.933 256.065 327.933Z" fill="url(#paint17_linear_58_4)"/>
<path d="M353.986 327.933H270.496C269.67 327.933 269.004 327.263 269.004 326.44C269.004 325.614 269.673 324.946 270.496 324.946H353.986C354.812 324.946 355.478 325.617 355.478 326.44C355.478 327.266 354.808 327.933 353.986 327.933Z" fill="#BDDDF9"/>
<path d="M256.065 342.315H234.541C233.715 342.315 233.049 341.644 233.049 340.821C233.049 339.995 233.718 339.328 234.541 339.328H256.065C256.891 339.328 257.558 339.998 257.558 340.821C257.558 341.648 256.888 342.315 256.065 342.315Z" fill="url(#paint18_linear_58_4)"/>
<path d="M353.986 342.315H270.496C269.67 342.315 269.004 341.644 269.004 340.821C269.004 339.995 269.673 339.328 270.496 339.328H353.986C354.812 339.328 355.478 339.998 355.478 340.821C355.478 341.648 354.808 342.315 353.986 342.315Z" fill="#BDDDF9"/>
<path d="M213.147 156.937V152.522C204.496 152.522 197.477 159.54 197.477 168.204C197.477 176.868 204.496 183.889 213.147 183.889V179.471C206.929 179.471 201.891 174.424 201.891 168.204C201.891 161.984 206.929 156.94 213.147 156.94V156.937Z" fill="url(#paint19_linear_58_4)"/>
<path d="M228.818 168.201C228.818 176.862 221.799 183.886 213.144 183.886V179.468C219.366 179.468 224.403 174.421 224.403 168.201C224.403 161.981 219.366 156.937 213.144 156.937V152.522C221.799 152.522 228.818 159.54 228.818 168.204V168.201Z" fill="url(#paint20_linear_58_4)"/>
<path d="M297.933 168.201C297.933 174.424 292.896 179.468 286.674 179.468C280.453 179.468 275.418 174.421 275.418 168.201C275.418 161.981 280.456 156.937 286.674 156.937V152.522C278.023 152.522 271.004 159.54 271.004 168.204C271.004 176.868 278.023 183.889 286.674 183.889C295.326 183.889 302.348 176.865 302.348 168.204H297.933V168.201Z" fill="url(#paint21_linear_58_4)"/>
<path d="M302.348 168.201H297.933C297.933 161.978 292.896 156.937 286.674 156.937V152.522C295.329 152.522 302.348 159.54 302.348 168.204V168.201Z" fill="url(#paint22_linear_58_4)"/>
<path d="M357.357 152.519V156.934C363.578 156.934 368.616 161.975 368.616 168.198C368.616 174.421 363.578 179.465 357.357 179.465C351.135 179.465 346.101 174.418 346.101 168.198H341.686C341.686 176.859 348.705 183.883 357.357 183.883C366.008 183.883 373.031 176.859 373.031 168.198C373.031 159.537 366.012 152.516 357.357 152.516V152.519Z" fill="url(#paint23_linear_58_4)"/>
<path d="M357.357 152.519V156.934C351.139 156.934 346.101 161.975 346.101 168.198H341.686C341.686 159.537 348.705 152.516 357.357 152.516V152.519Z" fill="url(#paint24_linear_58_4)"/>
<path d="M518.739 401.197C537.521 385.79 545.724 485.554 543.142 511.415C540.559 537.276 533.147 511.191 524.624 471.057C516.1 430.924 511.349 407.258 518.739 401.197Z" fill="#EDAC98"/>
<path d="M548.768 514.371L549.351 520.537L534.802 525.8L524.387 523.035L530.281 520.893C530.281 520.893 534.166 519.041 534.652 516.815C535.138 514.589 548.768 514.371 548.768 514.371Z" fill="#EDAC98"/>
<path d="M549.102 517.058C549.102 517.058 538.674 527.346 530.275 520.893C530.275 520.893 517.577 523.116 517.667 526.966C517.76 530.816 526.4 529.622 526.4 529.622L550.033 528.73C550.033 528.73 551.12 523.468 549.098 517.055L549.102 517.058Z" fill="url(#paint25_linear_58_4)"/>
<path d="M572.489 398.501C593.446 386.22 585.969 486.041 579.38 511.181C572.791 536.319 569.545 509.395 567.392 468.423C565.239 427.451 564.242 403.33 572.489 398.501Z" fill="#EDAC98"/>
<path d="M584.729 515.471L584.013 520.681L569.187 525.105L558.946 521.75L564.953 519.948C564.953 519.948 568.937 518.321 569.551 516.126C570.162 513.931 584.733 515.471 584.733 515.471H584.729Z" fill="#EDAC98"/>
<path d="M584.598 517.208C584.598 517.208 572.969 526.869 564.953 519.948C564.953 519.948 552.148 521.445 552.021 525.295C551.893 529.145 560.588 528.447 560.588 528.447L584.234 528.905C584.234 528.905 586.253 523.727 584.602 517.211L584.598 517.208Z" fill="url(#paint26_linear_58_4)"/>
<path d="M597.35 230.323C596.194 233.409 593.141 235.374 589.879 235.682C575.23 237.06 516.698 243.782 515.075 233.051C513.168 220.434 566.411 218.08 579.087 219.461C589.652 220.612 600.141 222.869 597.35 230.326V230.323Z" fill="#EDAC98"/>
<path d="M535.836 221.544L524.508 221.597L510.872 195.596L497.451 199.68C497.451 199.68 508.187 232.876 513.34 237.821C518.492 242.762 541.899 236.745 541.79 236.424C541.681 236.103 535.83 221.544 535.83 221.544H535.836Z" fill="#EDAC98"/>
<path d="M517.754 234.934C514.611 234.504 512.056 232.172 510.804 229.257C504.95 215.611 484.46 166.814 488.865 162.147C493.993 156.716 526.951 226.071 524.876 229.45C523.318 231.985 522.047 235.52 517.751 234.934H517.754Z" fill="#EDAC98"/>
<path d="M495.591 166.374L496.295 165.623H496.311L496.308 165.604L495.872 161.523C495.75 160.476 495.392 159.481 494.8 158.614L491.332 155.522C491.332 155.522 489.902 155.587 491.367 157.791C491.747 158.365 491.781 159.469 491.759 160.366L490.036 158.396L485.457 153.894C484.291 152.731 481.93 152.239 480.497 153.564C480.497 153.564 478.64 155.584 479.824 158.455L481.123 162.589C482.17 164.61 482.603 166.371 484.354 167.827L489.454 171.378L495.597 166.371L495.591 166.374Z" fill="#EDAC98"/>
<path d="M535.87 220.923C535.581 220.939 535.356 221.176 535.356 221.466C535.372 225.004 535.475 245.649 535.621 246.092C535.783 246.575 558.005 248.025 558.005 248.025L553.98 219.876L535.87 220.92V220.923Z" fill="url(#paint27_linear_58_4)"/>
<path d="M520.393 130.05H424.31C422.505 130.05 421.042 131.515 421.042 133.321V196.824C421.042 198.63 422.505 200.094 424.31 200.094H520.393C522.198 200.094 523.661 198.63 523.661 196.824V133.321C523.661 131.515 522.198 130.05 520.393 130.05Z" fill="url(#paint28_linear_58_4)"/>
<path d="M489.423 162.496H455.281C453.858 162.496 452.704 163.65 452.704 165.074C452.704 166.498 453.858 167.652 455.281 167.652H489.423C490.845 167.652 491.999 166.498 491.999 165.074C491.999 163.65 490.845 162.496 489.423 162.496Z" fill="white"/>
<path d="M558.924 236.851C558.672 240.137 556.286 242.875 553.236 244.075C539.546 249.471 485.182 272.202 480.646 262.344C475.313 250.756 525.804 233.687 538.363 231.489C548.83 229.659 559.535 228.908 558.921 236.848L558.924 236.851Z" fill="#EDAC98"/>
<path d="M551.139 220.948V211.496C551.139 211.496 542.428 210.881 540.587 203.514C538.746 196.147 538.503 178.224 543.042 171.961C547.581 165.701 575.554 167.172 577.392 185.956C579.234 204.74 575.676 226.716 575.676 226.716L551.139 220.945V220.948Z" fill="#EDAC98"/>
<path d="M484.538 262.977C481.366 263.102 478.444 261.256 476.702 258.6C468.555 246.189 439.862 201.722 443.389 196.356C447.489 190.112 492.049 252.639 490.597 256.33C489.507 259.099 488.871 262.802 484.541 262.974L484.538 262.977Z" fill="#EDAC98"/>
<path d="M504.972 240.505L489.404 246.843L452.131 202.03L445.286 207.789C445.286 207.789 476.898 264.785 484.145 267.042C491.391 269.299 512.757 260.595 512.757 260.595L504.975 240.505H504.972Z" fill="#EDAC98"/>
<path d="M451.427 202.785L452.131 202.034H452.147L452.143 202.015L451.707 197.934C451.589 196.886 451.228 195.892 450.636 195.025L447.168 191.932C447.168 191.932 445.738 191.998 447.202 194.202C447.582 194.776 447.617 195.879 447.595 196.777L445.872 194.807L441.292 190.305C440.127 189.142 437.766 188.65 436.333 189.975C436.333 189.975 434.476 191.995 435.66 194.866L436.959 199C438.006 201.02 438.439 202.782 440.19 204.238L445.29 207.789L451.433 202.782L451.427 202.785Z" fill="#EDAC98"/>
<path d="M548.905 351.212C540.833 383.648 528.77 408.564 521.963 406.868C515.156 405.172 516.184 377.503 524.256 345.068C532.328 312.632 544.391 287.716 551.198 289.412C558.005 291.108 556.977 318.777 548.905 351.212Z" fill="#EDAC98"/>
<path d="M588.552 351.758C588.508 385.185 582.785 412.274 575.769 412.265C568.753 412.256 563.105 385.151 563.149 351.724C563.192 318.296 568.915 291.207 575.931 291.217C582.947 291.226 588.596 318.331 588.552 351.755V351.758Z" fill="#EDAC98"/>
<path d="M508.489 398.551C509 429.01 534.792 516.905 534.792 516.905L549.095 514.82C549.095 514.82 546.572 441.237 534.792 401.955L556.74 359.106L557.382 366.885L569.545 516.12H584.726C584.726 516.12 591.421 446.16 588.477 405.893C588.477 405.893 597.384 331.487 589.795 308.002C581.985 283.878 531.39 308.735 531.39 308.735C531.39 308.735 508.143 377.101 508.489 398.554V398.551Z" fill="url(#paint29_linear_58_4)"/>
<path d="M528.462 254.005C528.462 256.365 528.499 258.856 528.552 261.4C529.063 282.871 531.387 308.735 531.387 308.735C531.387 308.735 568.828 303.647 591.144 312.248C591.144 312.248 594.692 239.985 591.253 227.701C588.929 219.393 573.473 217.379 563.725 216.958C556.208 216.609 548.69 218.258 542.16 221.974C536.216 225.341 530.325 230.706 529.172 238.996C528.661 242.731 528.459 248.019 528.459 254.005H528.462Z" fill="url(#paint30_linear_58_4)"/>
<g style="mix-blend-mode:multiply">
<path d="M528.462 254.004C528.462 256.365 528.499 258.856 528.552 261.4C532.082 258.728 538.007 253.895 538.007 253.895L528.459 254.004H528.462Z" fill="#C2D2DC"/>
</g>
<path d="M561.921 245.79C556.697 241.871 552.51 236.2 549.862 230.71C546.391 223.514 546.266 215.227 549.497 207.923C551.569 203.237 557.018 199.652 554.821 193.94C553.594 190.748 547.213 192.59 544.637 188.416C542.061 184.241 539.668 182.031 539.852 177.367C540.036 172.703 542.674 163.861 559.85 166.009C577.025 168.157 583.324 177.856 585.533 189.644C586.225 193.326 588.159 197.154 590.418 201.052C591.172 202.352 591.96 203.658 592.748 204.967C597.568 212.964 602.983 221.943 600.811 231.723C597.191 248.041 575.153 255.722 561.918 245.793L561.921 245.79Z" fill="url(#paint31_linear_58_4)"/>
<path d="M547.335 219.517C547.335 219.517 532.368 227.171 504.56 239.829C504.189 239.997 503.996 240.424 504.124 240.814L511.152 262.064C511.411 262.849 512.268 263.264 513.047 262.98L538.014 253.892L547.338 219.517H547.335Z" fill="url(#paint32_linear_58_4)"/>
<g style="mix-blend-mode:multiply">
<path d="M556.74 359.106L557.379 366.885L571.648 335.34L556.74 359.106Z" fill="#DBE7EE"/>
</g>
<path d="M62.7819 436.925C62.461 437.568 62.0902 437.942 61.6946 437.964C61.57 437.964 61.4703 437.989 61.3238 437.989C49.9183 437.742 29.8581 378.947 0.940856 382.314C0.619968 382.339 0.320888 382.389 0 382.414C0 382.414 27.4842 369.32 41.3353 376.496C62.8317 387.636 66.1964 429.77 62.7819 436.922V436.925Z" fill="url(#paint33_linear_58_4)"/>
<path d="M62.7819 436.925C62.461 437.568 62.0902 437.942 61.6946 437.964C61.57 437.964 61.4703 437.989 61.3239 437.989C49.9183 437.742 29.8582 378.947 0.940857 382.314C0.940857 382.314 32.8271 369.663 47.8185 395.558C57.3424 411.994 61.2024 427.666 62.785 436.922L62.7819 436.925Z" fill="#73A2FD"/>
<path d="M63.4517 473.514C63.4517 473.514 63.4206 473.514 63.405 473.514C63.0187 473.492 62.7258 473.156 62.7508 472.769C62.81 471.846 68.1404 386.881 22.0884 380.543C21.7052 380.49 21.4372 380.138 21.4902 379.751C21.5432 379.371 21.8765 379.084 22.2815 379.153C69.6203 385.665 64.2119 471.924 64.1527 472.859C64.1309 473.23 63.8225 473.517 63.4517 473.517V473.514Z" fill="#73A2FD"/>
<path d="M138.405 402.516C138.405 402.516 138.381 402.516 138.306 402.491C109.089 398.061 88.8049 457.299 77.3028 458.066C77.1034 458.091 76.9321 458.091 76.7825 458.066C76.5582 458.041 76.3619 457.942 76.1875 457.745C72.0315 453.536 74.7295 408.234 97.1636 396.624C110.597 389.668 136.916 401.799 138.402 402.516H138.405Z" fill="url(#paint34_linear_58_4)"/>
<path d="M138.306 402.491C109.089 398.061 88.8049 457.299 77.3028 458.066C77.1034 458.091 76.9321 458.091 76.7825 458.066C76.5582 458.041 76.362 457.941 76.1875 457.745C78.1658 447.497 81.7921 426.644 93.8737 411.8C110.139 391.82 136.396 401.824 138.303 402.491H138.306Z" fill="#73A2FD"/>
<path d="M75.0223 493.623C74.6547 493.623 74.3463 493.336 74.3214 492.965C74.2622 492.03 68.8569 405.771 116.193 399.258C116.601 399.19 116.931 399.473 116.984 399.857C117.037 400.24 116.769 400.596 116.386 400.649C70.3336 406.987 75.6641 491.952 75.7233 492.875C75.7482 493.261 75.4554 493.598 75.0691 493.62C75.0535 493.62 75.0379 493.62 75.0223 493.62V493.623Z" fill="#73A2FD"/>
<path d="M65.3552 398.432V398.507C65.3303 398.706 65.3054 398.778 65.3054 398.778C65.3054 398.778 65.1807 398.678 64.9346 398.482C62.5856 396.403 49.2516 383.53 42.8432 353.775C33.9394 312.607 18.032 303.176 17.0413 302.63C17.0164 302.605 16.9915 302.605 16.9915 302.605L16.0756 302.135C16.3964 302.06 16.6955 302.01 16.9915 301.96C39.2044 297.851 56.0277 308.644 62.4329 334.464C69.533 363.106 65.8225 394.769 65.3521 398.432H65.3552Z" fill="url(#paint35_linear_58_4)"/>
<path d="M64.9346 398.482C62.5856 396.402 49.2516 383.53 42.8432 353.775C33.9393 312.607 18.032 303.176 17.0413 302.63C18.5243 302.877 48.0117 308.769 56.0526 342.782C62.112 368.478 64.2399 389.297 64.9346 398.482Z" fill="#73A2FD"/>
<path d="M68.3491 489.399C67.9628 489.399 67.6481 489.084 67.6481 488.697L67.6637 488.195C68.1902 471.129 71.6546 327.55 31.5405 309.913C31.1853 309.757 31.0233 309.343 31.1822 308.987C31.338 308.632 31.7554 308.479 32.1075 308.629C72.2122 326.259 69.9317 460.233 69.0657 488.239L69.0532 488.7C69.0532 489.087 68.7385 489.399 68.3522 489.399H68.3491Z" fill="#73A2FD"/>
<path d="M123.018 321.517L122.819 321.617L122.053 321.988C122.053 321.988 105.454 330.652 96.2507 373.182C89.3501 405.091 74.5051 417.593 73.7886 418.139C73.7637 418.039 73.7138 417.693 73.664 417.122V417.097C72.9474 411.155 69.8787 381.154 76.633 353.847C83.113 327.73 100.282 316.987 122.866 321.517H123.015H123.018Z" fill="url(#paint36_linear_58_4)"/>
<path d="M122.869 321.517C122.869 321.517 122.869 321.542 122.819 321.617L122.053 321.988C122.053 321.988 105.454 330.652 96.2507 373.182C89.3501 405.091 74.5051 417.593 73.7886 418.139C73.7636 418.039 73.7138 417.693 73.6639 417.122V417.097C78.3184 375.592 85.6863 355.038 92.3409 342.287C100.578 326.543 122.866 321.517 122.866 321.517H122.869Z" fill="#73A2FD"/>
<path d="M70.4177 491.06C70.0314 491.06 69.7168 490.748 69.7168 490.362C69.4302 444.614 72.4926 343.184 106.98 328.023C107.339 327.874 107.75 328.023 107.906 328.382C108.064 328.737 107.899 329.152 107.547 329.308C73.8198 344.135 70.8383 444.882 71.1218 490.352C71.1218 490.742 70.8103 491.057 70.424 491.06H70.4177Z" fill="#73A2FD"/>
<path d="M42.9585 471.983L43.3915 477.006L47.2765 520.949C47.4665 523.34 49.4417 525.189 51.8561 525.211L89.1508 525.538C91.5652 525.56 93.5715 523.745 93.8021 521.357L97.9954 481.838V481.757L98.9799 472.473L42.9554 471.98L42.9585 471.983Z" fill="url(#paint37_linear_58_4)"/>
<g style="mix-blend-mode:multiply">
<path d="M43.3915 477.006L47.2764 520.949C47.4664 523.34 49.4416 525.189 51.8561 525.211L69.6015 525.367C53.4761 518.935 49.5413 504.616 52.8218 493.629C56.3734 481.741 93.9921 481.804 97.9954 481.841C98.2072 481.841 98.3412 481.841 98.3412 481.841L97.9985 481.757L62.3301 474.25L43.3915 477.003V477.006Z" fill="#DBE7EE"/>
</g>
<path d="M41.2917 481.48L100.481 481.997C101.494 482.007 102.323 481.193 102.332 480.176L102.382 474.34C102.391 473.327 101.578 472.498 100.563 472.488L41.3727 471.971C40.3602 471.961 39.5315 472.775 39.5222 473.792L39.4723 479.628C39.463 480.641 40.2761 481.47 41.2917 481.48Z" fill="url(#paint38_linear_58_4)"/>
<g opacity="0.8">
<path d="M103.971 195.885H35.0858C32.9798 195.885 31.2725 197.594 31.2725 199.701V268.636C31.2725 270.743 32.9798 272.451 35.0858 272.451H103.971C106.077 272.451 107.784 270.743 107.784 268.636V199.701C107.784 197.594 106.077 195.885 103.971 195.885Z" fill="url(#paint39_linear_58_4)"/>
<path d="M69.5267 210.055C56.2208 210.055 45.4321 220.852 45.4321 234.167C45.4321 247.482 56.2208 258.279 69.5267 258.279C82.8326 258.279 93.6244 247.482 93.6244 234.167C93.6244 220.852 82.8358 210.055 69.5267 210.055ZM69.5267 249.933C60.8285 249.933 53.772 242.878 53.772 234.167C53.772 225.456 60.8285 218.401 69.5267 218.401C78.2249 218.401 85.2845 225.456 85.2845 234.167C85.2845 242.878 78.2281 249.933 69.5267 249.933Z" fill="url(#paint40_linear_58_4)"/>
<path d="M93.6245 234.167C93.6245 240.72 91.0106 246.666 86.7643 251.012L80.87 245.113C83.6053 242.276 85.2845 238.419 85.2845 234.167C85.2845 225.459 78.2281 218.401 69.5267 218.401V210.055C82.8389 210.055 93.6245 220.852 93.6245 234.167Z" fill="white"/>
</g>
<defs>
<linearGradient id="paint0_linear_58_4" x1="175.959" y1="245.715" x2="388.611" y2="245.715" gradientUnits="userSpaceOnUse">
<stop stop-color="#E2F4FF"/>
<stop offset="1" stop-color="#D7ECFF"/>
</linearGradient>
<linearGradient id="paint1_linear_58_4" x1="334.378" y1="92.0309" x2="334.378" y2="520.721" gradientUnits="userSpaceOnUse">
<stop stop-color="#E2F4FF"/>
<stop offset="1" stop-color="#D7ECFF"/>
</linearGradient>
<linearGradient id="paint2_linear_58_4" x1="213.147" y1="138.25" x2="213.147" y2="206.772" gradientUnits="userSpaceOnUse">
<stop stop-color="#9972FF"/>
<stop offset="1" stop-color="#7F85FF"/>
</linearGradient>
<linearGradient id="paint3_linear_58_4" x1="357.357" y1="88.8728" x2="357.357" y2="458.132" gradientUnits="userSpaceOnUse">
<stop stop-color="#E2F4FF"/>
<stop offset="1" stop-color="#D7ECFF"/>
</linearGradient>
<linearGradient id="paint4_linear_58_4" x1="104.002" y1="110.73" x2="149.316" y2="110.73" gradientUnits="userSpaceOnUse">
<stop stop-color="#9972FF"/>
<stop offset="1" stop-color="#7F85FF"/>
</linearGradient>
<linearGradient id="paint5_linear_58_4" x1="109.927" y1="151.472" x2="143.39" y2="151.472" gradientUnits="userSpaceOnUse">
<stop stop-color="#E2F4FF"/>
<stop offset="1" stop-color="#D7ECFF"/>
</linearGradient>
<linearGradient id="paint6_linear_58_4" x1="109.927" y1="174.065" x2="143.39" y2="174.065" gradientUnits="userSpaceOnUse">
<stop stop-color="#E2F4FF"/>
<stop offset="1" stop-color="#D7ECFF"/>
</linearGradient>
<linearGradient id="paint7_linear_58_4" x1="109.927" y1="196.659" x2="143.39" y2="196.659" gradientUnits="userSpaceOnUse">
<stop stop-color="#E2F4FF"/>
<stop offset="1" stop-color="#D7ECFF"/>
</linearGradient>
<linearGradient id="paint8_linear_58_4" x1="109.927" y1="219.252" x2="143.39" y2="219.252" gradientUnits="userSpaceOnUse">
<stop stop-color="#E2F4FF"/>
<stop offset="1" stop-color="#D7ECFF"/>
</linearGradient>
<linearGradient id="paint9_linear_58_4" x1="109.927" y1="241.846" x2="143.39" y2="241.846" gradientUnits="userSpaceOnUse">
<stop stop-color="#E2F4FF"/>
<stop offset="1" stop-color="#D7ECFF"/>
</linearGradient>
<linearGradient id="paint10_linear_58_4" x1="453.813" y1="158.92" x2="453.813" y2="562.934" gradientUnits="userSpaceOnUse">
<stop stop-color="#8AD3FF"/>
<stop offset="1" stop-color="#5F9CFF"/>
</linearGradient>
<linearGradient id="paint11_linear_58_4" x1="402.505" y1="324.02" x2="505.124" y2="324.02" gradientUnits="userSpaceOnUse">
<stop stop-color="#E2F4FF"/>
<stop offset="1" stop-color="#D7ECFF"/>
</linearGradient>
<linearGradient id="paint12_linear_58_4" x1="434.167" y1="324.02" x2="473.462" y2="324.02" gradientUnits="userSpaceOnUse">
<stop offset="0.09" stop-color="#374492"/>
<stop offset="1" stop-color="#014DAE"/>
</linearGradient>
<linearGradient id="paint13_linear_58_4" x1="144.758" y1="326.44" x2="372.451" y2="326.44" gradientUnits="userSpaceOnUse">
<stop stop-color="#8AD3FF"/>
<stop offset="1" stop-color="#5F9CFF"/>
</linearGradient>
<linearGradient id="paint14_linear_58_4" x1="193.539" y1="305.134" x2="193.539" y2="335.537" gradientUnits="userSpaceOnUse">
<stop stop-color="#9972FF"/>
<stop offset="1" stop-color="#7F85FF"/>
</linearGradient>
<linearGradient id="paint15_linear_58_4" x1="156.793" y1="332.307" x2="195.33" y2="332.307" gradientUnits="userSpaceOnUse">
<stop stop-color="#294698"/>
<stop offset="1" stop-color="#0E4BA6"/>
</linearGradient>
<linearGradient id="paint16_linear_58_4" x1="233.046" y1="312.058" x2="257.558" y2="312.058" gradientUnits="userSpaceOnUse">
<stop stop-color="#294698"/>
<stop offset="1" stop-color="#0E4BA6"/>
</linearGradient>
<linearGradient id="paint17_linear_58_4" x1="233.046" y1="326.44" x2="257.558" y2="326.44" gradientUnits="userSpaceOnUse">
<stop stop-color="#294698"/>
<stop offset="1" stop-color="#0E4BA6"/>
</linearGradient>
<linearGradient id="paint18_linear_58_4" x1="233.046" y1="340.821" x2="257.558" y2="340.821" gradientUnits="userSpaceOnUse">
<stop stop-color="#294698"/>
<stop offset="1" stop-color="#0E4BA6"/>
</linearGradient>
<linearGradient id="paint19_linear_58_4" x1="197.477" y1="168.201" x2="213.147" y2="168.201" gradientUnits="userSpaceOnUse">
<stop stop-color="#E2F4FF"/>
<stop offset="1" stop-color="#D7ECFF"/>
</linearGradient>
<linearGradient id="paint20_linear_58_4" x1="213.147" y1="168.201" x2="228.818" y2="168.201" gradientUnits="userSpaceOnUse">
<stop stop-color="#294698"/>
<stop offset="1" stop-color="#0E4BA6"/>
</linearGradient>
<linearGradient id="paint21_linear_58_4" x1="271.007" y1="168.201" x2="302.348" y2="168.201" gradientUnits="userSpaceOnUse">
<stop stop-color="#E2F4FF"/>
<stop offset="1" stop-color="#D7ECFF"/>
</linearGradient>
<linearGradient id="paint22_linear_58_4" x1="286.674" y1="160.36" x2="302.348" y2="160.36" gradientUnits="userSpaceOnUse">
<stop stop-color="#9972FF"/>
<stop offset="1" stop-color="#7F85FF"/>
</linearGradient>
<linearGradient id="paint23_linear_58_4" x1="341.686" y1="168.201" x2="373.027" y2="168.201" gradientUnits="userSpaceOnUse">
<stop stop-color="#8AD3FF"/>
<stop offset="1" stop-color="#5F9CFF"/>
</linearGradient>
<linearGradient id="paint24_linear_58_4" x1="341.686" y1="160.36" x2="357.357" y2="160.36" gradientUnits="userSpaceOnUse">
<stop stop-color="#E2F4FF"/>
<stop offset="1" stop-color="#D7ECFF"/>
</linearGradient>
<linearGradient id="paint25_linear_58_4" x1="533.785" y1="517.438" x2="534.075" y2="529.569" gradientUnits="userSpaceOnUse">
<stop offset="0.09" stop-color="#374492"/>
<stop offset="1" stop-color="#014DAE"/>
</linearGradient>
<linearGradient id="paint26_linear_58_4" x1="568.808" y1="516.643" x2="568.405" y2="528.776" gradientUnits="userSpaceOnUse">
<stop offset="0.09" stop-color="#374492"/>
<stop offset="1" stop-color="#014DAE"/>
</linearGradient>
<linearGradient id="paint27_linear_58_4" x1="534.571" y1="235.723" x2="556.541" y2="233.509" gradientUnits="userSpaceOnUse">
<stop stop-color="#8556FF"/>
<stop offset="1" stop-color="#7F85FF"/>
</linearGradient>
<linearGradient id="paint28_linear_58_4" x1="472.35" y1="78.2758" x2="472.35" y2="482.293" gradientUnits="userSpaceOnUse">
<stop stop-color="#9972FF"/>
<stop offset="1" stop-color="#7F85FF"/>
</linearGradient>
<linearGradient id="paint29_linear_58_4" x1="508.483" y1="407.186" x2="592.854" y2="407.186" gradientUnits="userSpaceOnUse">
<stop stop-color="#294698"/>
<stop offset="1" stop-color="#0E4BA6"/>
</linearGradient>
<linearGradient id="paint30_linear_58_4" x1="560.61" y1="226.111" x2="560.61" y2="290.5" gradientUnits="userSpaceOnUse">
<stop stop-color="#9972FF"/>
<stop offset="1" stop-color="#7F85FF"/>
</linearGradient>
<linearGradient id="paint31_linear_58_4" x1="601.306" y1="207.945" x2="539.842" y2="207.945" gradientUnits="userSpaceOnUse">
<stop offset="0.09" stop-color="#374492"/>
<stop offset="1" stop-color="#014DAE"/>
</linearGradient>
<linearGradient id="paint32_linear_58_4" x1="525.711" y1="226.046" x2="525.711" y2="289.807" gradientUnits="userSpaceOnUse">
<stop stop-color="#9972FF"/>
<stop offset="1" stop-color="#7F85FF"/>
</linearGradient>
<linearGradient id="paint33_linear_58_4" x1="31.9673" y1="388.477" x2="31.9673" y2="415.595" gradientUnits="userSpaceOnUse">
<stop stop-color="#8AD3FF"/>
<stop offset="1" stop-color="#5F9CFF"/>
</linearGradient>
<linearGradient id="paint34_linear_58_4" x1="106.482" y1="398.538" x2="106.482" y2="442.154" gradientUnits="userSpaceOnUse">
<stop stop-color="#8AD3FF"/>
<stop offset="1" stop-color="#5F9CFF"/>
</linearGradient>
<linearGradient id="paint35_linear_58_4" x1="58.2271" y1="324.934" x2="46.8729" y2="341.437" gradientUnits="userSpaceOnUse">
<stop stop-color="#8AD3FF"/>
<stop offset="1" stop-color="#5F9CFF"/>
</linearGradient>
<linearGradient id="paint36_linear_58_4" x1="97.6838" y1="328.111" x2="97.6838" y2="395.202" gradientUnits="userSpaceOnUse">
<stop stop-color="#8AD3FF"/>
<stop offset="1" stop-color="#5F9CFF"/>
</linearGradient>
<linearGradient id="paint37_linear_58_4" x1="98.983" y1="498.761" x2="42.9585" y2="498.761" gradientUnits="userSpaceOnUse">
<stop stop-color="#9972FF"/>
<stop offset="1" stop-color="#7F85FF"/>
</linearGradient>
<linearGradient id="paint38_linear_58_4" x1="102.385" y1="476.984" x2="39.4754" y2="476.984" gradientUnits="userSpaceOnUse">
<stop stop-color="#294698"/>
<stop offset="1" stop-color="#0E4BA6"/>
</linearGradient>
<linearGradient id="paint39_linear_58_4" x1="31.2725" y1="234.167" x2="107.784" y2="234.167" gradientUnits="userSpaceOnUse">
<stop stop-color="#8AD3FF"/>
<stop offset="1" stop-color="#5F9CFF"/>
</linearGradient>
<linearGradient id="paint40_linear_58_4" x1="45.4321" y1="234.167" x2="93.6244" y2="234.167" gradientUnits="userSpaceOnUse">
<stop stop-color="#294698"/>
<stop offset="1" stop-color="#0E4BA6"/>
</linearGradient>
</defs>
</svg>
